<svg xmlns="http://www.w3.org/2000/svg" width="420" height="80" viewBox="0 0 419.99999 80"><g fill="none" stroke="#027da8" style="stroke-width:.827584"><path d="M30.71631 43.87529c7.01105 0 12.79031-5.77928 12.79031-12.79031 0-7.01105-5.77926-12.7903-12.7903-12.7903-7.01105 0-12.79031 5.77925-12.79031 12.7903 0 7.01103 5.77943 12.7903 12.7903 12.7903zm24.9169-23.30641h-.00033c1.42116 3.3157 2.08435 6.82118 2.08435 10.5161 0 3.59998-.66323 7.20014-2.08435 10.5161-1.42113 3.22104-3.31597 6.0633-5.77927 8.5266-2.5583 2.55806-5.40056 4.4529-8.62177 5.77927-3.31571 1.4211-6.91612 2.17903-10.5161 2.17903-3.6 0-7.20015-.7579-10.51611-2.17903-.7579-.28424-1.51586-.66321-2.27379-1.04218v21.22256L3.71457 71.35024V31.08497c0-3.69466.75798-7.20014 2.08435-10.5161 1.42113-3.22145 3.31597-6.15847 5.77927-8.62177 2.5583-2.4633 5.40056-4.35814 8.62177-5.77927 3.31571-1.42116 6.91595-2.08435 10.5161-2.08435 3.69467 0 7.20015.66323 10.51611 2.08435 3.22146 1.42113 6.06371 3.31597 8.62177 5.77927 2.4633 2.55832 4.35814 5.40057 5.77927 8.62178z" /><path d="M75.38267 24.54541H97.3633c-2.36855-3.6949-6.44274-6.15822-10.99032-6.15822-4.64258 0-8.71652 2.46331-10.99031 6.15822zm10.99031 33.53866-.0011.00042c-7.19998 0-13.83232-2.84226-18.94836-7.86354-5.02137-5.02178-7.76886-11.74839-7.76886-18.85402 0-7.10563 2.74757-13.83273 7.76886-18.854 5.11612-5.02129 11.74796-7.86355 18.94836-7.86355 7.10563 0 13.83264 2.84176 18.85401 7.86354 5.02137 5.02178 7.76886 11.74838 7.76886 18.85401v6.91612H75.38184c2.2742 3.60015 6.34799 6.06346 10.99032 6.06346 3.60057 0 6.91653-1.42113 9.37983-4.07387l10.04273 9.47419c-2.46313 2.55798-5.40015 4.64233-8.71611 6.06346-3.41047 1.51585-7.01071 2.27378-10.70563 2.27378z" /><path d="m155.16837 12.75318.00042.0004c4.45281 4.54758 7.01087 10.51645 7.01087 16.95885v27.94916h-14.21127V29.71242c0-5.30555-4.35814-9.66369-9.66369-9.66369-4.9262 0-8.90534 3.60024-9.56853 8.24257v29.37013h-14.21126V29.71226h-.0948c0-.7579 0-1.4211.0948-2.17903V4.32116h14.21126v3.50548c2.9366-1.3264 6.15781-1.98959 9.56853-1.98959 6.34757 0 12.3161 2.46322 16.86367 6.91613z" /><path d="m204.35251 12.75318.00041.0004c4.45282 4.54758 7.01088 10.51645 7.01088 16.95885v27.94916h-14.21127V29.71242c0-5.30555-4.35814-9.66369-9.6637-9.66369-4.92619 0-8.90533 3.60024-9.56852 8.24257v29.37013h-14.21127V29.71226h-.0947c0-.7579 0-1.4211.0947-2.17903V4.32116h14.21127v3.50548c2.9366-1.3264 6.1578-1.98959 9.56852-1.98959 6.34757 0 12.31611 2.46322 16.86368 6.91613z" /><path d="m216.08103 75.85064 9.56935-23.7798-21.12739-47.74993h15.63223l12.69514 29.93868L244.78743 4.3209h15.15885l-28.80157 71.52973Z" /><path d="M280.32802 43.6386c7.01104 0 12.79031-5.77926 12.79031-12.79031 0-7.01104-5.77927-12.7903-12.79031-12.7903-7.01104 0-12.79031 5.77926-12.79031 12.7903s5.77943 12.7903 12.79031 12.7903zm24.91689-23.30642h-.00033c1.42116 3.31571 2.08436 6.8212 2.08436 10.5161 0 3.6-.66323 7.20015-2.08436 10.51611-1.42112 3.22104-3.31596 6.0633-5.77926 8.5266-2.55831 2.55806-5.40057 4.4529-8.62177 5.77927-3.31572 1.4211-6.91612 2.17903-10.51611 2.17903-3.59999 0-7.20015-.7579-10.51611-2.17903-.7579-.28424-1.51585-.66321-2.27379-1.04218v21.22256l-14.21127-4.73709V30.8483c0-3.69466.75799-7.20014 2.08436-10.5161 1.42112-3.22145 3.31596-6.15847 5.77926-8.62177 2.55831-2.4633 5.40057-4.35815 8.62177-5.77928 3.31572-1.42116 6.91596-2.08435 10.51611-2.08435 3.69467 0 7.20015.66323 10.51611 2.08435 3.22145 1.42113 6.06371 3.31597 8.62177 5.77928 2.4633 2.5583 4.35814 5.40056 5.77926 8.62177z" /><path d="M340.77325 41.8386v-.00033c1.9896-1.0421 3.5054-2.65274 4.64234-4.54758 1.13686-1.9895 1.70532-4.16861 1.70532-6.4424 0-1.89483-.37896-3.695-1.23161-5.40031-.94742-2.17912-2.55798-4.07396-4.64234-5.30557-1.98951-1.42116-4.45281-2.08435-6.91611-2.08435-7.01105 0-12.79031 5.77927-12.79031 12.79031 0 7.01104 5.77943 12.79031 12.79031 12.79031 2.27378 0 4.54757-.66314 6.4424-1.80008zm5.68451-38.08624 14.21127.00034v53.33943h-14.21127l.0947-2.17903c-3.7895 1.89484-7.95837 2.93701-12.22175 2.93701-3.59999 0-7.20015-.75798-10.51611-2.08435-3.22146-1.42113-6.06371-3.31596-8.62177-5.77927-2.4633-2.5583-4.35814-5.40056-5.77927-8.62177-1.32642-3.3157-2.08435-6.91612-2.08435-10.5161 0-3.59999.75798-7.20015 2.08435-10.5161 1.42113-3.22146 3.31597-6.15847 5.77927-8.62178 2.55831-2.4633 5.40056-4.35814 8.62177-5.77926 3.31571-1.42116 6.91595-2.08436 10.51611-2.08436 4.26346 0 8.43208 1.04218 12.22175 2.93702z" /><path d="m372.22128 75.2821 9.56935-23.7798-21.12739-47.74994h15.63223l12.69514 29.93867 11.93707-29.93867h15.15885L387.28496 75.2821Z" /></g></svg>