<?xml version="1.0" encoding="UTF-8"?>
<svg version="1.1" viewBox="0 0 24 24" xmlns="http://www.w3.org/2000/svg">
 <path d="M12 .5c-1.15 0-2.3.212-3.36.666a9.364 9.364 0 0 0-2.753 1.846C5.1 3.799 4.495 4.737 4.04 5.766a8.988 8.988 0 0 0-.666 3.359v12.862l4.54 1.513v-6.779c.242.121.484.242.726.333 1.06.454 2.21.696 3.359.696 1.15 0 2.3-.242 3.36-.696a8.318 8.318 0 0 0 2.753-1.846 8.85 8.85 0 0 0 1.846-2.724 8.529 8.529 0 0 0 .666-3.359c0-1.18-.212-2.3-.666-3.359a9.364 9.364 0 0 0-1.846-2.754 9.362 9.362 0 0 0-2.754-1.846C14.3.712 13.18.5 12 .5zm0 4.54c2.24 0 4.086 1.845 4.086 4.085S14.24 13.21 12 13.21s-4.085-1.847-4.085-4.086c0-2.24 1.845-4.086 4.085-4.086z" />
</svg>
