<svg xmlns:dc="http://purl.org/dc/elements/1.1/" xmlns:cc="http://creativecommons.org/ns#" xmlns:rdf="http://www.w3.org/1999/02/22-rdf-syntax-ns#" xmlns:svg="http://www.w3.org/2000/svg" xmlns="http://www.w3.org/2000/svg" xmlns:xlink="http://www.w3.org/1999/xlink" id="svg3152" viewBox="0 0 1024 768" height="768px" width="1024px" version="1.1">
  <metadata id="metadata3158">
    <rdf:rdf>
      <cc:work rdf:about="">
        <dc:format>image/svg+xml</dc:format>
        <dc:type rdf:resource="http://purl.org/dc/dcmitype/StillImage"></dc:type>
      </cc:work>
    </rdf:rdf>
  </metadata>
  <defs id="defs3156"></defs>
  <linearGradient spreadMethod="pad" y2="30%" x2="-10%" y1="120%" x1="30%" id="3d_gradient2-logo-91c42c7a-9193-4f8d-9114-52421f1046b6">
    <stop id="stop3133" stop-opacity="1" stop-color="#ffffff" offset="0%"></stop>
    <stop id="stop3135" stop-opacity="1" stop-color="#000000" offset="100%"></stop>
  </linearGradient>
  <linearGradient gradientTransform="rotate(-30)" spreadMethod="pad" y2="30%" x2="-10%" y1="120%" x1="30%" id="3d_gradient3-logo-91c42c7a-9193-4f8d-9114-52421f1046b6">
    <stop id="stop3138" stop-opacity="1" stop-color="#ffffff" offset="0%"></stop>
    <stop id="stop3140" stop-opacity="1" stop-color="#cccccc" offset="50%"></stop>
    <stop id="stop3142" stop-opacity="1" stop-color="#000000" offset="100%"></stop>
  </linearGradient>
  <g id="logo-group">
    <image xlink:href="" id="container" style="display: none;" x="272" y="144" width="480" height="480" transform="translate(0 0)"></image>
    <g id="logo-center" transform="translate(1.1368683772161603e-13 0)">
      <image xlink:href="" id="icon_container" style="display: none;" x="0" y="0"></image>
      <g id="slogan" style="font-style:normal;font-weight:400;font-size:32px;line-height:1;font-family:Montserrat;font-variant-ligatures:none;text-align:center;text-anchor:middle" transform="translate(0 0)"></g>
      <g id="title" style="font-style:normal;font-weight:700;font-size:72px;line-height:1;font-family:'Comfortaa Bold Alt2';font-variant-ligatures:none;text-align:center;text-anchor:middle" transform="translate(0 0)">
        <path id="path3161" style="font-style:normal;font-weight:700;font-size:72px;line-height:1;font-family:'Comfortaa Bold Alt2';font-variant-ligatures:none;text-align:center;text-anchor:middle" d="m 362.48806,0.144 c 0.72,0 1.368,-0.216 2.016,-0.648 0.792,-0.576 1.296,-1.368 1.512,-2.376 0.144,-0.936 0,-1.872 -0.576,-2.664 l -11.88,-17.136 c 2.52,-1.08 4.608,-2.664 6.408,-4.752 2.808,-3.24 4.176,-7.056 4.176,-11.304 0,-4.824 -1.728,-8.928 -5.112,-12.384 -3.456,-3.384 -7.56,-5.112 -12.384,-5.112 h -14.04 c -1.008,0 -1.8,0.36 -2.52,1.08 -0.72,0.72 -1.08,1.512 -1.08,2.52 v 49.104 c 0,1.008 0.36,1.872 1.08,2.52 0.72,0.72 1.512,1.08 2.52,1.08 1.008,0 1.872,-0.36 2.52,-1.08 0.72,-0.648 1.08,-1.512 1.08,-2.52 v -45.504 h 10.44 c 2.808,0 5.256,1.008 7.272,3.024 2.016,2.016 3.024,4.392 3.024,7.272 0,2.52 -0.864,4.752 -2.448,6.624 -1.584,1.872 -3.6,3.024 -5.976,3.456 l -1.296,0.144 c -1.368,0.144 -2.376,0.864 -2.88,2.088 -0.648,1.224 -0.504,2.448 0.288,3.528 l 14.904,21.456 c 0.648,1.008 1.656,1.584 2.952,1.584 z" stroke-width="0" stroke-linejoin="miter" stroke-miterlimit="2" fill="#ffffff" stroke="#ffffff" transform="translate(0 312.823) translate(213.26656250000002 35.94200000000001) scale(1.25) translate(-329.00806 56.232)"></path>
        <path id="path3163" style="font-style:normal;font-weight:700;font-size:72px;line-height:1;font-family:'Comfortaa Bold Alt2';font-variant-ligatures:none;text-align:center;text-anchor:middle" d="m 413.37856,-5.976 c -0.72,-0.576 -1.584,-0.936 -2.664,-0.936 h -28.8 v -18 h 20.664 c 1.008,0 1.872,-0.288 2.592,-0.936 0.72,-0.648 1.08,-1.512 1.08,-2.52 0,-1.008 -0.36,-1.8 -1.08,-2.448 -0.72,-0.648 -1.584,-1.008 -2.592,-1.008 h -20.664 V -49.32 h 28.8 c 1.08,0 1.944,-0.288 2.664,-0.936 0.648,-0.576 1.008,-1.44 1.008,-2.448 0,-1.008 -0.36,-1.872 -1.008,-2.52 -0.72,-0.648 -1.584,-1.008 -2.664,-1.008 h -32.544 c -1.08,0 -1.944,0.36 -2.664,1.08 -0.72,0.72 -1.08,1.584 -1.08,2.664 v 48.744 c 0,1.08 0.36,1.944 1.08,2.664 0.72,0.72 1.584,1.08 2.664,1.08 h 32.544 c 1.08,0 1.944,-0.288 2.664,-0.936 0.648,-0.648 1.008,-1.512 1.008,-2.592 0,-1.008 -0.36,-1.8 -1.008,-2.448 z" stroke-width="0" stroke-linejoin="miter" stroke-miterlimit="2" fill="#ffffff" stroke="#ffffff" transform="translate(0 312.823) translate(288.7896875 35.94200000000001) scale(1.25) translate(-374.42656 56.232)"></path>
        <path id="path3165" style="font-style:normal;font-weight:700;font-size:72px;line-height:1;font-family:'Comfortaa Bold Alt2';font-variant-ligatures:none;text-align:center;text-anchor:middle" d="m 468.25831,-55.368 c -0.576,-0.576 -1.44,-0.864 -2.448,-0.864 -0.864,0 -1.584,0.216 -2.088,0.504 -0.576,0.288 -1.008,0.864 -1.296,1.728 l -18.432,43.488 -18.144,-43.488 c -0.648,-1.44 -1.8,-2.232 -3.456,-2.232 -1.08,0 -1.944,0.288 -2.52,0.864 -0.576,0.576 -0.864,1.296 -0.864,2.232 0,0.72 0.144,1.512 0.576,2.52 l 21.096,48.24 c 0.72,1.584 1.8,2.376 3.384,2.376 1.584,0 2.736,-0.792 3.384,-2.376 l 21.312,-48.888 c 0.288,-0.648 0.432,-1.296 0.432,-1.872 0,-0.864 -0.36,-1.656 -0.936,-2.232 z" stroke-width="0" stroke-linejoin="miter" stroke-miterlimit="2" fill="#ffffff" stroke="#ffffff" transform="translate(0 312.823) translate(363.269375 35.94200000000001) scale(1.25) translate(-419.01031 56.232)"></path>
        <path id="path3167" style="font-style:normal;font-weight:700;font-size:72px;line-height:1;font-family:'Comfortaa Bold Alt2';font-variant-ligatures:none;text-align:center;text-anchor:middle" d="m 516.73794,-5.976 c -0.72,-0.576 -1.584,-0.936 -2.664,-0.936 h -28.8 v -18 h 20.664 c 1.008,0 1.872,-0.288 2.592,-0.936 0.72,-0.648 1.08,-1.512 1.08,-2.52 0,-1.008 -0.36,-1.8 -1.08,-2.448 -0.72,-0.648 -1.584,-1.008 -2.592,-1.008 h -20.664 V -49.32 h 28.8 c 1.08,0 1.944,-0.288 2.664,-0.936 0.648,-0.576 1.008,-1.44 1.008,-2.448 0,-1.008 -0.36,-1.872 -1.008,-2.52 -0.72,-0.648 -1.584,-1.008 -2.664,-1.008 h -32.544 c -1.08,0 -1.944,0.36 -2.664,1.08 -0.72,0.72 -1.08,1.584 -1.08,2.664 v 48.744 c 0,1.08 0.36,1.944 1.08,2.664 0.72,0.72 1.584,1.08 2.664,1.08 h 32.544 c 1.08,0 1.944,-0.288 2.664,-0.936 0.648,-0.648 1.008,-1.512 1.008,-2.592 0,-1.008 -0.36,-1.8 -1.008,-2.448 z" stroke-width="0" stroke-linejoin="miter" stroke-miterlimit="2" fill="#ffffff" stroke="#ffffff" transform="translate(0 312.823) translate(455.4889125000001 35.94200000000001) scale(1.25) translate(-477.78594 56.232)"></path>
        <path id="path3169" style="font-style:normal;font-weight:700;font-size:72px;line-height:1;font-family:'Comfortaa Bold Alt2';font-variant-ligatures:none;text-align:center;text-anchor:middle" d="m 561.75369,0.144 c 0.72,0 1.368,-0.216 2.016,-0.648 0.792,-0.576 1.296,-1.368 1.512,-2.376 0.144,-0.936 0,-1.872 -0.576,-2.664 l -11.88,-17.136 c 2.52,-1.08 4.608,-2.664 6.408,-4.752 2.808,-3.24 4.176,-7.056 4.176,-11.304 0,-4.824 -1.728,-8.928 -5.112,-12.384 -3.456,-3.384 -7.56,-5.112 -12.384,-5.112 h -14.04 c -1.008,0 -1.8,0.36 -2.52,1.08 -0.72,0.72 -1.08,1.512 -1.08,2.52 v 49.104 c 0,1.008 0.36,1.872 1.08,2.52 0.72,0.72 1.512,1.08 2.52,1.08 1.008,0 1.872,-0.36 2.52,-1.08 0.72,-0.648 1.08,-1.512 1.08,-2.52 v -45.504 h 10.44 c 2.808,0 5.256,1.008 7.272,3.024 2.016,2.016 3.024,4.392 3.024,7.272 0,2.52 -0.864,4.752 -2.448,6.624 -1.584,1.872 -3.6,3.024 -5.976,3.456 l -1.296,0.144 c -1.368,0.144 -2.376,0.864 -2.88,2.088 -0.648,1.224 -0.504,2.448 0.288,3.528 l 14.904,21.456 c 0.648,1.008 1.656,1.584 2.952,1.584 z" stroke-width="0" stroke-linejoin="miter" stroke-miterlimit="2" fill="#ffffff" stroke="#ffffff" transform="translate(0 312.823) translate(537.3486 35.94200000000001) scale(1.25) translate(-528.27369 56.232)"></path>
        <path id="path3171" style="font-style:normal;font-weight:700;font-size:72px;line-height:1;font-family:'Comfortaa Bold Alt2';font-variant-ligatures:none;text-align:center;text-anchor:middle" d="m 580.10019,-1.08 c 0.72,-0.72 1.08,-1.584 1.08,-2.664 v -15.768 h 10.656 c 3.528,0 6.696,-0.72 9.504,-2.304 2.808,-1.512 4.968,-3.672 6.552,-6.408 1.584,-2.736 2.376,-5.832 2.376,-9.36 0,-3.6 -0.792,-6.768 -2.376,-9.648 -1.584,-2.808 -3.744,-5.04 -6.552,-6.624 -2.808,-1.584 -5.976,-2.376 -9.504,-2.376 h -14.4 c -1.08,0 -1.944,0.36 -2.664,1.08 -0.72,0.72 -1.08,1.584 -1.08,2.664 v 48.744 c 0,1.08 0.36,1.944 1.08,2.664 0.72,0.72 1.584,1.08 2.664,1.08 1.08,0 1.944,-0.36 2.664,-1.08 z m 19.8,-28.44 c -2.16,2.088 -4.824,3.096 -8.064,3.096 h -10.656 V -49.32 h 10.656 c 3.24,0 5.904,1.152 8.064,3.312 2.088,2.232 3.168,5.04 3.168,8.424 0,3.312 -1.08,5.976 -3.168,8.064 z" stroke-width="0" stroke-linejoin="miter" stroke-miterlimit="2" fill="#ffffff" stroke="#ffffff" transform="translate(0 312.823) translate(612.871725 35.94200000000001) scale(1.25) translate(-573.69219 56.232)"></path>
        <path id="path3173" style="font-style:normal;font-weight:700;font-size:72px;line-height:1;font-family:'Comfortaa Bold Alt2';font-variant-ligatures:none;text-align:center;text-anchor:middle" d="m 658.49019,-5.256 -20.304,-48.456 c -0.648,-1.656 -1.8,-2.52 -3.528,-2.52 -1.656,0 -2.808,0.864 -3.528,2.52 l -20.232,48.312 c -0.288,0.648 -0.36,1.224 -0.36,1.656 0,1.08 0.288,1.944 1.008,2.664 0.72,0.72 1.584,1.08 2.664,1.08 0.72,0 1.368,-0.144 2.016,-0.576 0.576,-0.432 1.08,-0.936 1.44,-1.728 l 17.136,-41.904 16.848,41.904 c 0.216,0.72 0.72,1.296 1.368,1.728 0.648,0.432 1.296,0.576 2.088,0.576 1.008,0 1.944,-0.36 2.664,-1.08 0.72,-0.72 1.08,-1.584 1.08,-2.592 0,-0.432 -0.144,-0.936 -0.36,-1.584 z" stroke-width="0" stroke-linejoin="miter" stroke-miterlimit="2" fill="#ffffff" stroke="#ffffff" transform="translate(0 312.823) translate(677.679225 35.94200000000001) scale(1.25) translate(-610.53819 56.232)"></path>
        <path id="path3175" style="font-style:normal;font-weight:700;font-size:72px;line-height:1;font-family:'Comfortaa Bold Alt2';font-variant-ligatures:none;text-align:center;text-anchor:middle" d="m 701.04556,-55.224 c -0.576,-0.648 -1.368,-1.008 -2.232,-1.008 -1.44,0 -2.592,0.648 -3.312,1.8 l -17.136,27 -16.848,-26.712 c -0.504,-0.72 -1.008,-1.224 -1.44,-1.584 -0.504,-0.288 -1.152,-0.504 -1.872,-0.504 -1.008,0 -1.944,0.36 -2.664,1.008 -0.72,0.72 -1.08,1.512 -1.08,2.52 0,0.72 0.216,1.512 0.792,2.304 l 19.224,29.88 v 16.776 c 0,1.08 0.36,1.944 1.08,2.664 0.72,0.72 1.584,1.08 2.592,1.08 1.008,0 1.944,-0.36 2.664,-1.08 0.72,-0.72 1.08,-1.584 1.08,-2.664 V -20.52 l 19.368,-29.88 c 0.432,-0.72 0.72,-1.512 0.72,-2.376 0,-0.936 -0.36,-1.728 -0.936,-2.448 z" stroke-width="0" stroke-linejoin="miter" stroke-miterlimit="2" fill="#ffffff" stroke="#ffffff" transform="translate(0 312.823) translate(751.3334375 35.94200000000001) scale(1.25) translate(-654.46156 56.232)"></path>
      </g>
      <image xlink:href="" id="icon" style="display: none;" x="0" y="0"></image>
    </g>
  </g>
</svg>