<svg viewBox="0 0 93.132 24" xmlns="http://www.w3.org/2000/svg"><path d="M34.807 18.842v1.462h-2.83V3.6h2.83v6.426c.673-.951 1.926-1.601 3.434-1.601 3.457 0 5.521 2.459 5.521 6.032s-2.065 6.032-5.568 6.032c-1.415 0-2.714-.626-3.387-1.647zm6.125-4.385c0-2.157-1.253-3.572-3.155-3.572s-3.155 1.415-3.155 3.573 1.252 3.572 3.155 3.572c1.902 0 3.155-1.415 3.155-3.573zm15.637 5.847h-2.854v-1.81c-.65 1.276-1.972 1.995-3.642 1.995-2.622 0-4.338-1.902-4.338-4.64V8.61h2.83v6.635c0 1.6.998 2.714 2.436 2.714 1.601 0 2.714-1.253 2.714-2.97V8.61h2.854zm1.925-3.898h2.598c.116 1.114.974 1.81 2.25 1.81 1.114 0 1.856-.557 1.856-1.253 0-2.598-6.403-.116-6.403-5.057 0-2.042 1.786-3.48 4.199-3.48 2.738 0 4.617 1.508 4.733 3.78h-2.598c-.162-1.09-1.16-1.646-2.065-1.646-1.021 0-1.694.464-1.694 1.253 0 2.529 6.496-.255 6.496 5.034 0 2.204-1.786 3.642-4.524 3.642-2.83 0-4.71-1.577-4.848-4.083zM70.025 3.6h2.83v6.82c.65-1.275 1.995-1.994 3.666-1.994 2.622 0 4.338 1.902 4.338 4.64v7.238h-2.83v-6.635c0-1.601-.998-2.714-2.459-2.714-1.578 0-2.714 1.253-2.714 2.97v6.38h-2.83V3.6zm23.107 9.187v7.517h-2.807v-1.74c-.487 1.16-1.833 1.926-3.503 1.926-2.32 0-3.898-1.485-3.898-3.503 0-2.274 1.763-3.69 4.385-3.69h2.158c.58 0 .858-.324.858-.788 0-1.137-.882-1.95-2.39-1.95s-2.412.952-2.459 1.996h-2.552c.14-2.32 2.111-4.13 5.15-4.13 2.97 0 5.058 1.717 5.058 4.362zm-2.807 2.575v-.186h-2.622c-1.205 0-2.018.673-2.018 1.694 0 .905.742 1.508 1.81 1.508 1.785 0 2.83-1.253 2.83-3.016z" fill="#000639" style="stroke-width:.083916"/><path d="M22.083 23.983a1.885 1.885 0 0 1-1.35-.566L.56 3.258A1.915 1.915 0 0 1 1.94.072 1.915 1.915 0 0 1 3.27.56l20.164 20.16a1.916 1.916 0 0 1 .52.978 1.915 1.915 0 0 1-.81 1.96 1.915 1.915 0 0 1-1.06.326zm.002-11.604a1.906 1.906 0 0 1-1.351-.566L12.18 3.26a1.91 1.91 0 0 1 0-2.701 1.91 1.91 0 0 1 2.702 0l8.553 8.551a1.897 1.897 0 0 1 0 2.702 1.868 1.868 0 0 1-1.352.566zM10.462 24a1.908 1.908 0 0 1-1.35-.566L.56 14.882a1.91 1.91 0 0 1 2.082-3.116 1.91 1.91 0 0 1 .62.414l8.552 8.552a1.897 1.897 0 0 1 .565 1.351 1.897 1.897 0 0 1-.565 1.35 1.868 1.868 0 0 1-1.35.567z" fill="#16cb3e" style="stroke-width:.083916"/></svg>