<svg viewBox="0 0 69.111 24" xml:space="preserve" xmlns="http://www.w3.org/2000/svg"><path d="M12 0C5.373 0 0 5.373 0 12s5.373 12 12 12 12-5.373 12-12S18.627 0 12 0zm3.322 17.159a5.135 5.135 0 0 1-2.91-.899 5.71 5.71 0 0 0 1.108-1.317 3.438 3.438 0 0 0 1.802.507 3.45 3.45 0 1 0-2.354-5.973v.76l.015-.02v4.627l-.015.022v.02h-.013a5.16 5.16 0 1 1-1.367-7.146 5.702 5.702 0 0 0-1.108 1.316 3.438 3.438 0 0 0-1.802-.507 3.45 3.45 0 1 0 2.581 5.74V8.82a5.16 5.16 0 1 1 4.062 8.34zm12.327-5.023c.255.278.565.486.93.627a3.4 3.4 0 0 0 1.229.21 3.5 3.5 0 0 0 1.179-.198c.154-.056.286-.114.393-.176.107-.062.18-.112.218-.15a.57.57 0 0 0 .082-.106.446.446 0 0 0 .04-.11.954.954 0 0 0 .024-.153 3.229 3.229 0 0 0-.003-.512.825.825 0 0 0-.03-.172c-.014-.04-.031-.068-.052-.082a.146.146 0 0 0-.081-.02c-.045 0-.107.027-.187.082-.08.054-.182.116-.306.184-.125.068-.274.13-.448.187-.175.056-.38.084-.619.084-.263 0-.499-.045-.709-.135a1.389 1.389 0 0 1-.537-.412 1.952 1.952 0 0 1-.343-.703 3.749 3.749 0 0 1-.12-1.01c0-.355.037-.674.112-.957a2.15 2.15 0 0 1 .33-.723c.145-.2.321-.353.528-.46s.44-.162.703-.162c.238 0 .444.03.616.09s.32.125.445.199c.124.073.226.14.304.199.079.06.143.09.195.09.03 0 .058-.01.081-.03a.236.236 0 0 0 .062-.098.684.684 0 0 0 .036-.174c.006-.072.01-.159.01-.261a3.21 3.21 0 0 0-.007-.24 1.412 1.412 0 0 0-.023-.17.439.439 0 0 0-.041-.117.578.578 0 0 0-.095-.115 1.173 1.173 0 0 0-.242-.166 2.37 2.37 0 0 0-.392-.171 3.316 3.316 0 0 0-.473-.12 3.016 3.016 0 0 0-.532-.047c-.454 0-.869.077-1.245.23-.377.154-.7.38-.97.676a3.11 3.11 0 0 0-.629 1.1 4.6 4.6 0 0 0-.225 1.499c0 .552.068 1.036.205 1.453.135.415.33.762.587 1.04zm5.212.703c.051.017.12.03.208.041.086.01.194.016.324.016.134 0 .243-.006.328-.016a1.06 1.06 0 0 0 .204-.04.215.215 0 0 0 .108-.067.15.15 0 0 0 .03-.092v-2.675h2.476v2.675c0 .034.011.065.033.092a.23.23 0 0 0 .108.066c.05.017.117.03.205.041.086.01.197.016.33.016.13 0 .237-.006.322-.016a1.05 1.05 0 0 0 .205-.04.235.235 0 0 0 .11-.067.142.142 0 0 0 .033-.092v-6.25c0-.035-.011-.065-.034-.093s-.058-.05-.11-.067a1.103 1.103 0 0 0-.204-.04 2.714 2.714 0 0 0-.322-.016c-.133 0-.243.005-.33.015-.087.01-.156.024-.205.041a.23.23 0 0 0-.108.067.142.142 0 0 0-.033.092v2.43h-2.476V6.43a.154.154 0 0 0-.03-.092.218.218 0 0 0-.108-.067 1.103 1.103 0 0 0-.204-.04 2.78 2.78 0 0 0-.328-.016c-.13 0-.238.005-.324.015a1.07 1.07 0 0 0-.208.041.228.228 0 0 0-.11.067.142.142 0 0 0-.033.092v6.251c0 .034.011.065.033.092.023.027.06.05.11.067zm6.865.026h3.325a.14.14 0 0 0 .084-.029.205.205 0 0 0 .064-.089.65.65 0 0 0 .039-.16 2.06 2.06 0 0 0 .013-.249c0-.099-.004-.182-.013-.248a.625.625 0 0 0-.039-.161c-.017-.041-.038-.071-.064-.09s-.054-.028-.084-.028h-2.384V9.944h2a.14.14 0 0 0 .084-.026c.026-.017.047-.045.064-.084s.03-.092.039-.156c.008-.065.013-.147.013-.246 0-.095-.004-.176-.013-.243a.566.566 0 0 0-.039-.158.21.21 0 0 0-.064-.088.138.138 0 0 0-.084-.028h-2V7.3h2.363a.13.13 0 0 0 .082-.028.21.21 0 0 0 .061-.09.65.65 0 0 0 .04-.161 2.341 2.341 0 0 0-.001-.496.672.672 0 0 0-.039-.164.199.199 0 0 0-.06-.09.138.138 0 0 0-.083-.026h-3.304a.42.42 0 0 0-.284.1c-.077.066-.116.175-.116.325v5.77c0 .15.04.258.116.325.076.067.171.1.284.1zm5.033-.73c.256.279.566.487.931.628a3.4 3.4 0 0 0 1.228.21 3.51 3.51 0 0 0 1.179-.198c.155-.056.286-.114.393-.176.108-.062.18-.112.218-.15a.57.57 0 0 0 .082-.106.446.446 0 0 0 .041-.11.954.954 0 0 0 .023-.153 3.486 3.486 0 0 0-.002-.512.793.793 0 0 0-.03-.172c-.014-.04-.031-.068-.052-.082a.146.146 0 0 0-.082-.02c-.045 0-.107.027-.186.082a3.99 3.99 0 0 1-.307.184c-.124.068-.274.13-.448.187-.174.056-.38.084-.619.084-.262 0-.499-.045-.708-.135a1.385 1.385 0 0 1-.537-.412 1.942 1.942 0 0 1-.342-.703 3.749 3.749 0 0 1-.12-1.01c0-.355.037-.674.112-.957a2.15 2.15 0 0 1 .33-.723c.145-.2.32-.353.527-.46s.44-.162.703-.162c.239 0 .445.03.616.09.172.06.32.125.445.199.125.073.226.14.305.199.078.06.143.09.194.09.03 0 .058-.01.082-.03a.236.236 0 0 0 .061-.098.684.684 0 0 0 .036-.174 2.91 2.91 0 0 0 .01-.261c0-.096-.001-.176-.007-.24a1.412 1.412 0 0 0-.023-.17.439.439 0 0 0-.04-.117.578.578 0 0 0-.095-.115 1.172 1.172 0 0 0-.243-.166 2.385 2.385 0 0 0-.39-.171 3.316 3.316 0 0 0-.474-.12 3.016 3.016 0 0 0-.532-.047c-.454 0-.869.077-1.245.23-.377.154-.7.38-.97.676a3.11 3.11 0 0 0-.629 1.1 4.6 4.6 0 0 0-.225 1.499c0 .552.068 1.036.205 1.453.133.415.33.762.585 1.04zm5.213.701c.05.02.12.034.206.044.087.01.196.015.325.015.133 0 .242-.005.327-.015a.917.917 0 0 0 .205-.044.23.23 0 0 0 .108-.069.16.16 0 0 0 .03-.097V9.53l2 3.14a.367.367 0 0 0 .1.123c.042.034.113.06.21.077.097.017.257.026.479.026.14 0 .255-.006.347-.016.092-.01.165-.024.218-.043s.088-.042.107-.071a.179.179 0 0 0 .028-.1.367.367 0 0 0-.023-.11 2.323 2.323 0 0 0-.135-.279l-1.98-2.992 1.816-2.379a3.59 3.59 0 0 0 .174-.291.402.402 0 0 0 .047-.179.154.154 0 0 0-.03-.092.233.233 0 0 0-.11-.07.981.981 0 0 0-.213-.043 4.462 4.462 0 0 0-.665-.005.997.997 0 0 0-.21.036.38.38 0 0 0-.133.069.38.38 0 0 0-.086.11l-1.939 2.813V6.435a.16.16 0 0 0-.03-.097.218.218 0 0 0-.108-.067 1.093 1.093 0 0 0-.205-.04 2.78 2.78 0 0 0-.327-.016c-.13 0-.238.005-.325.015a1.05 1.05 0 0 0-.207.041.228.228 0 0 0-.11.067.15.15 0 0 0-.033.097v6.235c0 .038.011.07.034.098.02.027.057.05.108.068zm8.352.029h1.581c.587 0 1.092-.064 1.517-.192a2.74 2.74 0 0 0 1.082-.601 2.64 2.64 0 0 0 .682-1.057c.16-.431.239-.95.239-1.557 0-.525-.074-.987-.22-1.386a2.62 2.62 0 0 0-.642-1.005 2.726 2.726 0 0 0-1.039-.614c-.41-.138-.91-.207-1.5-.207h-1.7a.42.42 0 0 0-.283.1c-.077.066-.115.174-.115.325v5.77c0 .15.038.258.115.325a.42.42 0 0 0 .284.099zm.942-5.565h.68c.413 0 .746.055 1 .166.254.111.462.265.624.463.162.197.28.431.353.7.074.27.11.562.11.875 0 .382-.042.717-.125 1.003a1.87 1.87 0 0 1-.38.719 1.55 1.55 0 0 1-.63.432c-.253.095-.564.143-.932.143h-.7zm9.831 4.268a.787.787 0 0 0-.03-.171c-.014-.041-.03-.068-.051-.082a.147.147 0 0 0-.082-.02c-.044 0-.106.027-.186.081a3.67 3.67 0 0 1-.307.185c-.124.068-.274.13-.448.187-.173.056-.38.084-.619.084-.263 0-.499-.045-.708-.135a1.385 1.385 0 0 1-.537-.412 1.942 1.942 0 0 1-.343-.704 3.749 3.749 0 0 1-.12-1.01c0-.355.038-.674.113-.956.075-.283.184-.524.33-.724.145-.2.32-.353.527-.46s.44-.161.703-.161c.238 0 .444.03.616.089.172.06.32.126.445.2.124.073.226.14.304.199.079.06.143.09.195.09.03 0 .058-.011.082-.031a.236.236 0 0 0 .061-.098.684.684 0 0 0 .036-.174 3.117 3.117 0 0 0 .002-.501 1.412 1.412 0 0 0-.023-.169.439.439 0 0 0-.04-.117.578.578 0 0 0-.095-.115 1.18 1.18 0 0 0-.243-.167 2.385 2.385 0 0 0-.391-.17 3.315 3.315 0 0 0-.474-.121 3.016 3.016 0 0 0-.531-.046c-.454 0-.87.077-1.246.23-.377.154-.7.379-.969.676-.27.296-.479.663-.63 1.1a4.6 4.6 0 0 0-.224 1.498c0 .553.068 1.037.204 1.453a2.8 2.8 0 0 0 .589 1.041c.256.278.566.487.931.627a3.4 3.4 0 0 0 1.228.21 3.51 3.51 0 0 0 1.179-.197c.155-.057.286-.115.394-.177.107-.061.18-.112.218-.15a.57.57 0 0 0 .082-.105.446.446 0 0 0 .04-.11 1.02 1.02 0 0 0 .024-.154 2.53 2.53 0 0 0 .007-.218 4.538 4.538 0 0 0-.013-.295zM26.451 14.58h40.58v.177h-40.58zm1.63 2.98a1.02 1.02 0 0 0-.213-.157 3.744 3.744 0 0 0-.242-.123 18.843 18.843 0 0 1-.241-.116 1.246 1.246 0 0 1-.213-.13.588.588 0 0 1-.15-.165.426.426 0 0 1-.057-.224c0-.059.011-.116.032-.17a.381.381 0 0 1 .095-.14.447.447 0 0 1 .159-.094.663.663 0 0 1 .224-.034c.087 0 .165.01.233.031a1.147 1.147 0 0 1 .299.142c.033.021.057.032.073.032a.033.033 0 0 0 .022-.009.064.064 0 0 0 .017-.025.169.169 0 0 0 .01-.04.43.43 0 0 0-.006-.138.14.14 0 0 0-.01-.024.167.167 0 0 0-.026-.03.402.402 0 0 0-.085-.055 1.005 1.005 0 0 0-.146-.061 1.353 1.353 0 0 0-.173-.045 1.053 1.053 0 0 0-.508.03.738.738 0 0 0-.255.138.62.62 0 0 0-.166.22.697.697 0 0 0-.058.293.673.673 0 0 0 .206.501c.061.06.13.113.21.158.078.045.158.087.24.125l.24.115c.079.039.149.082.21.129a.589.589 0 0 1 .15.164.426.426 0 0 1 .055.224.542.542 0 0 1-.044.225.46.46 0 0 1-.126.167.56.56 0 0 1-.19.103.977.977 0 0 1-.53-.002 1.322 1.322 0 0 1-.355-.166c-.037-.025-.066-.038-.086-.038a.063.063 0 0 0-.025.005.048.048 0 0 0-.02.02.129.129 0 0 0-.01.04.346.346 0 0 0 .006.145.15.15 0 0 0 .034.059c.017.016.045.036.088.06s.096.048.158.071c.062.024.133.044.213.06a1.257 1.257 0 0 0 .62-.03.835.835 0 0 0 .288-.157.716.716 0 0 0 .19-.251.796.796 0 0 0 .067-.335.671.671 0 0 0-.205-.498zm1.633-.58a.056.056 0 0 0 .046-.026.146.146 0 0 0 .02-.082.238.238 0 0 0-.005-.048.102.102 0 0 0-.013-.035.057.057 0 0 0-.02-.02.052.052 0 0 0-.027-.007h-.544v-.483a.05.05 0 0 0-.006-.024.047.047 0 0 0-.021-.018.112.112 0 0 0-.04-.012.48.48 0 0 0-.166.012.045.045 0 0 0-.02.018.056.056 0 0 0-.006.024v.483h-.294a.06.06 0 0 0-.027.006.053.053 0 0 0-.02.021.096.096 0 0 0-.013.035.234.234 0 0 0-.005.048c0 .037.006.064.018.082a.054.054 0 0 0 .047.027h.294v1.224c0 .11.01.206.03.287.02.082.05.149.094.201s.099.093.167.119a.7.7 0 0 0 .249.04.78.78 0 0 0 .175-.021.402.402 0 0 0 .073-.024.158.158 0 0 0 .048-.03.099.099 0 0 0 .024-.045.282.282 0 0 0 .007-.074.264.264 0 0 0-.003-.047.146.146 0 0 0-.01-.03.03.03 0 0 0-.013-.017.043.043 0 0 0-.02-.004.094.094 0 0 0-.04.01.567.567 0 0 1-.13.048.364.364 0 0 1-.095.012c-.113 0-.191-.04-.234-.117a.728.728 0 0 1-.065-.342v-1.19h.545zm1.739-.065a.553.553 0 0 0-.225-.14 1.03 1.03 0 0 0-.342-.05 1.31 1.31 0 0 0-.563.139.452.452 0 0 0-.096.065.108.108 0 0 0-.034.054.344.344 0 0 0-.003.117.08.08 0 0 0 .011.03.04.04 0 0 0 .019.017.063.063 0 0 0 .024.004c.014 0 .038-.01.072-.031s.078-.045.13-.071a1.15 1.15 0 0 1 .182-.071.809.809 0 0 1 .235-.032c.09 0 .166.01.229.033a.363.363 0 0 1 .152.098c.04.043.068.097.085.162s.027.139.027.223v.169h-.314c-.142 0-.27.013-.387.04s-.215.067-.298.121a.569.569 0 0 0-.19.201.577.577 0 0 0-.068.284.6.6 0 0 0 .045.24.507.507 0 0 0 .131.181c.057.05.126.089.208.116.082.027.175.04.277.04a.74.74 0 0 0 .332-.078.994.994 0 0 0 .293-.222v.22c0 .014.004.026.014.033.01.008.023.014.04.018a.329.329 0 0 0 .126 0 .084.084 0 0 0 .037-.018.042.042 0 0 0 .014-.033v-1.331c0-.113-.013-.214-.037-.303a.529.529 0 0 0-.126-.225zm-.099 1.394c-.1.11-.194.192-.284.245a.556.556 0 0 1-.288.079.427.427 0 0 1-.304-.1.355.355 0 0 1-.108-.272.343.343 0 0 1 .155-.305.572.572 0 0 1 .196-.082c.078-.019.17-.028.274-.028h.359v.463zm2.063-1.488a.078.078 0 0 0-.008-.02.058.058 0 0 0-.017-.017.495.495 0 0 0-.123-.042.728.728 0 0 0-.144-.016.544.544 0 0 0-.127.015.413.413 0 0 0-.128.057.791.791 0 0 0-.137.119c-.048.05-.1.117-.156.2v-.311a.056.056 0 0 0-.006-.024.045.045 0 0 0-.018-.018.102.102 0 0 0-.037-.011.44.44 0 0 0-.12 0 .127.127 0 0 0-.039.01.045.045 0 0 0-.02.019.056.056 0 0 0-.005.024v1.968c0 .01.001.017.005.024.003.008.01.013.02.018.01.004.024.008.04.011a.374.374 0 0 0 .063.004.387.387 0 0 0 .064-.004.143.143 0 0 0 .04-.011.044.044 0 0 0 .02-.018.047.047 0 0 0 .006-.024v-1.33c.055-.09.106-.164.151-.225.046-.06.09-.11.13-.146a.465.465 0 0 1 .12-.08.277.277 0 0 1 .115-.026.43.43 0 0 1 .091.01 1.237 1.237 0 0 1 .137.041c.017.007.033.01.046.01.009 0 .016-.002.02-.007a.059.059 0 0 0 .013-.022.134.134 0 0 0 .008-.037.686.686 0 0 0 .001-.108l-.005-.033zm1.332.16c.019 0 .035-.01.046-.027a.146.146 0 0 0 .02-.082.234.234 0 0 0-.006-.048.102.102 0 0 0-.012-.035.053.053 0 0 0-.021-.02.052.052 0 0 0-.027-.007h-.543v-.483a.048.048 0 0 0-.007-.024.048.048 0 0 0-.02-.018.112.112 0 0 0-.04-.012.48.48 0 0 0-.166.012.045.045 0 0 0-.02.018.056.056 0 0 0-.006.024v.483h-.294c-.01 0-.02.002-.027.007a.05.05 0 0 0-.02.02.096.096 0 0 0-.013.035.238.238 0 0 0-.004.048.16.16 0 0 0 .017.082.054.054 0 0 0 .048.027h.294v1.224c0 .11.01.206.03.287.02.082.05.149.094.202s.1.092.168.118a.7.7 0 0 0 .248.04.78.78 0 0 0 .175-.021.388.388 0 0 0 .073-.024.158.158 0 0 0 .048-.03.099.099 0 0 0 .024-.045.282.282 0 0 0 .007-.074.264.264 0 0 0-.003-.047.146.146 0 0 0-.009-.03.03.03 0 0 0-.014-.017.043.043 0 0 0-.02-.004.092.092 0 0 0-.04.011.567.567 0 0 1-.13.048.365.365 0 0 1-.095.011c-.113 0-.191-.04-.234-.117a.73.73 0 0 1-.064-.342v-1.19h.543zm2.854.579a1.02 1.02 0 0 0-.212-.157 3.744 3.744 0 0 0-.242-.123 18.843 18.843 0 0 1-.242-.116 1.246 1.246 0 0 1-.212-.13.588.588 0 0 1-.15-.165.426.426 0 0 1-.057-.224c0-.059.01-.116.032-.17a.387.387 0 0 1 .094-.14.447.447 0 0 1 .16-.094.663.663 0 0 1 .223-.034c.087 0 .165.01.233.031a1.107 1.107 0 0 1 .299.142c.033.021.057.032.073.032a.033.033 0 0 0 .022-.009.063.063 0 0 0 .017-.025.206.206 0 0 0 .01-.04.43.43 0 0 0-.006-.138.148.148 0 0 0-.01-.024.167.167 0 0 0-.026-.03.402.402 0 0 0-.085-.055 1.005 1.005 0 0 0-.146-.061 1.353 1.353 0 0 0-.173-.045 1.053 1.053 0 0 0-.508.03.744.744 0 0 0-.255.138.62.62 0 0 0-.165.22.697.697 0 0 0-.06.293.673.673 0 0 0 .207.501c.061.06.131.113.21.158.078.045.158.087.24.125.082.038.162.077.24.115.079.039.149.082.21.129a.589.589 0 0 1 .15.164.426.426 0 0 1 .056.224.542.542 0 0 1-.045.225.46.46 0 0 1-.125.167.558.558 0 0 1-.192.103.977.977 0 0 1-.53-.002 1.322 1.322 0 0 1-.354-.166c-.037-.025-.066-.038-.086-.038a.063.063 0 0 0-.025.005.04.04 0 0 0-.02.02.129.129 0 0 0-.011.04.346.346 0 0 0 .006.145.15.15 0 0 0 .035.059c.016.016.045.036.088.06s.095.048.157.071a1.412 1.412 0 0 0 .468.085c.132 0 .254-.018.365-.055a.835.835 0 0 0 .29-.157.716.716 0 0 0 .188-.251.796.796 0 0 0 .068-.335.671.671 0 0 0-.204-.498zm2.26-.555a.739.739 0 0 0-.289-.207 1.043 1.043 0 0 0-.403-.072c-.161 0-.302.027-.423.08a.828.828 0 0 0-.3.226.961.961 0 0 0-.182.342 1.49 1.49 0 0 0-.06.433c0 .162.02.308.059.437a.89.89 0 0 0 .174.33c.077.09.174.16.289.209.115.048.25.072.403.072.16 0 .3-.027.42-.081a.828.828 0 0 0 .302-.228.993.993 0 0 0 .181-.343 1.47 1.47 0 0 0 .061-.433c0-.16-.02-.306-.058-.435a.917.917 0 0 0-.175-.33zm-.08 1.12a.76.76 0 0 1-.122.263.569.569 0 0 1-.21.174.682.682 0 0 1-.304.063.679.679 0 0 1-.32-.068.542.542 0 0 1-.205-.183.78.78 0 0 1-.108-.268 1.552 1.552 0 0 1-.033-.323c0-.117.013-.227.04-.329a.766.766 0 0 1 .12-.264.566.566 0 0 1 .21-.175.682.682 0 0 1 .305-.064.67.67 0 0 1 .32.069.545.545 0 0 1 .204.185.779.779 0 0 1 .108.268 1.526 1.526 0 0 1-.006.652zm3.554-1.158a.549.549 0 0 0-.204-.176.68.68 0 0 0-.463-.044c-.05.014-.103.036-.157.067s-.112.073-.172.124a2.156 2.156 0 0 0-.192.19.705.705 0 0 0-.085-.163.541.541 0 0 0-.126-.127.577.577 0 0 0-.171-.082.767.767 0 0 0-.221-.03c-.1 0-.201.028-.303.085a1.304 1.304 0 0 0-.322.274v-.278a.056.056 0 0 0-.005-.024.045.045 0 0 0-.018-.019.102.102 0 0 0-.037-.01.44.44 0 0 0-.12 0 .122.122 0 0 0-.039.01.045.045 0 0 0-.02.019.056.056 0 0 0-.006.024v1.968c0 .009.002.017.006.024.003.008.01.013.02.018a.374.374 0 0 0 .103.015.383.383 0 0 0 .064-.004.146.146 0 0 0 .039-.011.044.044 0 0 0 .02-.018.047.047 0 0 0 .007-.024v-1.412c.11-.138.212-.242.305-.313a.46.46 0 0 1 .278-.107.37.37 0 0 1 .327.17c.036.055.062.12.08.197.017.076.025.16.025.253v1.211c0 .01.002.017.006.024.003.008.01.013.02.018.01.004.024.008.04.011a.374.374 0 0 0 .063.004.378.378 0 0 0 .062-.004.15.15 0 0 0 .04-.011.044.044 0 0 0 .02-.018.047.047 0 0 0 .006-.024v-1.412c.112-.137.214-.242.308-.313a.46.46 0 0 1 .278-.106c.073 0 .137.014.192.044s.099.072.135.126a.61.61 0 0 1 .078.196c.017.076.026.16.026.253v1.212c0 .009.001.017.005.024.003.007.01.013.02.017.01.005.024.009.04.012a.39.39 0 0 0 .065.004.378.378 0 0 0 .062-.004.153.153 0 0 0 .04-.012.049.049 0 0 0 .02-.017.047.047 0 0 0 .007-.024v-1.236c0-.11-.01-.214-.033-.313a.768.768 0 0 0-.113-.258zM45.61 17a.726.726 0 0 0-.258-.2.88.88 0 0 0-.378-.073c-.138 0-.263.024-.375.072s-.209.12-.289.211a.957.957 0 0 0-.183.336 1.45 1.45 0 0 0-.064.448c0 .175.02.328.062.46s.102.242.182.331c.08.09.178.157.296.203.117.045.252.068.405.068a1.53 1.53 0 0 0 .472-.071c.06-.018.11-.036.147-.054a.313.313 0 0 0 .068-.038.096.096 0 0 0 .027-.045.184.184 0 0 0 .005-.026.476.476 0 0 0 0-.084.123.123 0 0 0-.01-.036.04.04 0 0 0-.018-.02.047.047 0 0 0-.024-.007.209.209 0 0 0-.073.024 1.626 1.626 0 0 1-.319.107 1.16 1.16 0 0 1-.246.024.835.835 0 0 1-.326-.056.526.526 0 0 1-.215-.163.657.657 0 0 1-.118-.253 1.398 1.398 0 0 1-.036-.33h1.342a.14.14 0 0 0 .08-.03c.028-.02.042-.055.042-.108v-.052c0-.122-.016-.238-.047-.348a.821.821 0 0 0-.149-.29zm-1.27.614a.906.906 0 0 1 .048-.251.653.653 0 0 1 .119-.212.58.58 0 0 1 .19-.147.578.578 0 0 1 .259-.055c.192 0 .337.059.437.176.1.117.148.28.144.49zm2.922-.632c.019 0 .035-.01.047-.027a.146.146 0 0 0 .019-.082.234.234 0 0 0-.005-.048.102.102 0 0 0-.013-.035.053.053 0 0 0-.02-.02.052.052 0 0 0-.027-.007h-.544v-.483a.05.05 0 0 0-.006-.024.048.048 0 0 0-.02-.018.112.112 0 0 0-.04-.012.48.48 0 0 0-.167.012.05.05 0 0 0-.02.018.056.056 0 0 0-.006.024v.483h-.294c-.01 0-.02.002-.027.006a.05.05 0 0 0-.02.021.108.108 0 0 0-.013.035.238.238 0 0 0-.004.048.16.16 0 0 0 .017.082.054.054 0 0 0 .048.027h.294v1.224c0 .11.01.206.03.287.019.082.05.149.094.201s.099.093.168.119a.7.7 0 0 0 .248.04.772.772 0 0 0 .175-.021.388.388 0 0 0 .073-.024.17.17 0 0 0 .048-.03.105.105 0 0 0 .024-.045.282.282 0 0 0 .008-.074.264.264 0 0 0-.004-.047.146.146 0 0 0-.008-.03.03.03 0 0 0-.014-.017.043.043 0 0 0-.02-.004.092.092 0 0 0-.04.01l-.057.025a.553.553 0 0 1-.075.024.364.364 0 0 1-.094.011c-.113 0-.191-.04-.234-.117a.73.73 0 0 1-.064-.342v-1.19h.543zm2.024-.014a.575.575 0 0 0-.214-.176.739.739 0 0 0-.648.02 1.173 1.173 0 0 0-.322.261v-1.23a.048.048 0 0 0-.007-.023.048.048 0 0 0-.02-.019.112.112 0 0 0-.04-.01.48.48 0 0 0-.166.01.05.05 0 0 0-.021.019.056.056 0 0 0-.006.024v2.932c0 .009.002.017.006.024.003.008.01.013.02.018a.374.374 0 0 0 .103.015.387.387 0 0 0 .064-.004.146.146 0 0 0 .04-.011.044.044 0 0 0 .02-.018.047.047 0 0 0 .007-.024v-1.412c.11-.138.215-.242.315-.313.1-.071.2-.107.3-.107.079 0 .147.015.206.045s.107.071.144.126c.038.054.067.12.085.196.02.076.029.175.029.296v1.168c0 .01.002.017.006.024a.044.044 0 0 0 .02.018c.01.004.023.008.04.011a.387.387 0 0 0 .064.004c.024 0 .045-.001.062-.004s.03-.006.039-.011a.044.044 0 0 0 .02-.018.047.047 0 0 0 .007-.024v-1.192a1.52 1.52 0 0 0-.036-.356.73.73 0 0 0-.117-.259zm1.002-1c-.066 0-.11.012-.135.037-.025.024-.037.071-.037.141 0 .07.012.117.036.14.024.024.067.036.13.036.066 0 .111-.012.136-.037.024-.024.037-.071.037-.141 0-.07-.013-.117-.036-.14-.024-.024-.068-.036-.131-.036zm.1.797a.112.112 0 0 0-.039-.01.48.48 0 0 0-.166.01.045.045 0 0 0-.02.019.056.056 0 0 0-.006.024v1.968a.06.06 0 0 0 .005.024c.004.008.01.013.02.017.01.005.024.009.041.012a.374.374 0 0 0 .062.004c.027 0 .048-.001.064-.004s.03-.007.04-.012a.049.049 0 0 0 .02-.017.047.047 0 0 0 .007-.024v-1.968a.048.048 0 0 0-.006-.024.05.05 0 0 0-.022-.019zm2.196.203a.58.58 0 0 0-.214-.176.739.739 0 0 0-.651.02c-.109.057-.22.148-.333.274v-.278a.056.056 0 0 0-.006-.024.045.045 0 0 0-.018-.019.102.102 0 0 0-.037-.01.44.44 0 0 0-.12 0 .122.122 0 0 0-.039.01.045.045 0 0 0-.02.019.056.056 0 0 0-.005.024v1.968c0 .009.001.017.005.024.003.008.01.013.02.017.01.005.024.009.04.012a.374.374 0 0 0 .063.004c.026 0 .047-.001.064-.004s.03-.007.04-.012a.044.044 0 0 0 .026-.041v-1.412c.11-.138.215-.242.316-.313.1-.071.2-.107.3-.107.078 0 .146.015.206.045.058.03.106.071.144.126.037.054.066.12.085.196.019.076.028.175.028.296v1.168c0 .01.002.017.006.024a.044.044 0 0 0 .021.018c.01.004.022.008.04.011a.387.387 0 0 0 .063.004c.025 0 .045-.001.062-.004s.03-.006.04-.011a.044.044 0 0 0 .02-.018.047.047 0 0 0 .007-.024v-1.192c0-.139-.013-.258-.036-.356a.73.73 0 0 0-.117-.259zm2.378-.206h-.58a1.344 1.344 0 0 0-.299-.035.86.86 0 0 0-.296.049.641.641 0 0 0-.383.363.769.769 0 0 0-.054.297.65.65 0 0 0 .133.416.857.857 0 0 0-.126.185.523.523 0 0 0-.052.238.31.31 0 0 0 .052.172c.035.054.09.099.163.137-.046.04-.087.078-.123.116a.636.636 0 0 0-.09.117.492.492 0 0 0-.053.129.567.567 0 0 0-.017.144.438.438 0 0 0 .197.373.82.82 0 0 0 .265.11c.108.028.239.041.393.041.16 0 .3-.017.415-.053s.211-.083.287-.144a.57.57 0 0 0 .218-.46.447.447 0 0 0-.052-.22.484.484 0 0 0-.141-.158.645.645 0 0 0-.208-.096 1.09 1.09 0 0 0-.253-.037l-.533-.022a.372.372 0 0 1-.206-.06c-.053-.038-.08-.085-.08-.14 0-.05.01-.093.03-.13a.395.395 0 0 1 .07-.1.562.562 0 0 0 .188.09.877.877 0 0 0 .55-.011.614.614 0 0 0 .384-.359.778.778 0 0 0 .053-.297.753.753 0 0 0-.036-.232.522.522 0 0 0-.127-.203h.31a.066.066 0 0 0 .051-.024c.013-.016.02-.045.02-.085a.165.165 0 0 0-.017-.083c-.011-.019-.029-.028-.053-.028zm-1.417 2.108a.588.588 0 0 1 .079-.105c.033-.037.076-.075.128-.116l.572.02a.592.592 0 0 1 .312.082.248.248 0 0 1 .117.22.402.402 0 0 1-.033.16.34.34 0 0 1-.108.134.59.59 0 0 1-.2.094 1.102 1.102 0 0 1-.305.036c-.193 0-.344-.027-.452-.083-.107-.055-.161-.136-.161-.243a.357.357 0 0 1 .051-.199zm.973-1.266a.444.444 0 0 1-.085.155.388.388 0 0 1-.145.105.506.506 0 0 1-.205.04.462.462 0 0 1-.345-.125.467.467 0 0 1-.123-.343c0-.067.01-.13.028-.19a.445.445 0 0 1 .085-.156.396.396 0 0 1 .144-.106.494.494 0 0 1 .202-.04c.15 0 .267.042.349.126.082.084.123.2.123.35 0 .065-.01.126-.028.184zm3.745-1.37a.07.07 0 0 0 .022-.022.11.11 0 0 0 .013-.035.289.289 0 0 0 0-.103.138.138 0 0 0-.013-.039.063.063 0 0 0-.022-.023.053.053 0 0 0-.028-.007h-1.944a.05.05 0 0 0-.03.007.066.066 0 0 0-.02.023.12.12 0 0 0-.013.038.289.289 0 0 0 0 .104.105.105 0 0 0 .013.035c.006.01.013.017.02.022a.05.05 0 0 0 .03.008h.84v2.534c0 .009.002.017.006.024.004.008.011.013.022.018a.396.396 0 0 0 .21 0 .047.047 0 0 0 .02-.018.047.047 0 0 0 .007-.024V16.24h.84c.01 0 .019-.003.028-.008zm1.549.772a.739.739 0 0 0-.289-.207 1.043 1.043 0 0 0-.403-.072c-.161 0-.302.027-.422.08a.828.828 0 0 0-.302.226.961.961 0 0 0-.18.342 1.49 1.49 0 0 0-.06.433c0 .162.02.308.058.437a.898.898 0 0 0 .174.33c.077.09.174.16.289.209.115.048.25.072.403.072.16 0 .3-.027.42-.081s.221-.13.301-.228a.983.983 0 0 0 .182-.343 1.47 1.47 0 0 0 .061-.433c0-.16-.02-.306-.059-.435a.907.907 0 0 0-.173-.33zm-.08 1.12a.75.75 0 0 1-.121.263.569.569 0 0 1-.21.174.681.681 0 0 1-.304.063.677.677 0 0 1-.32-.068.542.542 0 0 1-.205-.183.78.78 0 0 1-.108-.268 1.552 1.552 0 0 1-.033-.323c0-.117.013-.227.04-.329a.766.766 0 0 1 .12-.264.566.566 0 0 1 .21-.175.682.682 0 0 1 .305-.064.67.67 0 0 1 .32.069.551.551 0 0 1 .204.185.79.79 0 0 1 .109.268 1.526 1.526 0 0 1-.007.652zm2.454-2.313a.176.176 0 0 0-.04-.01.387.387 0 0 0-.063-.005.353.353 0 0 0-.102.015.039.039 0 0 0-.021.018.056.056 0 0 0-.006.024v1.185a1.147 1.147 0 0 0-.291-.234.68.68 0 0 0-.326-.079.816.816 0 0 0-.363.076.715.715 0 0 0-.263.218.994.994 0 0 0-.161.342 1.726 1.726 0 0 0-.055.452c0 .142.015.277.043.403a.985.985 0 0 0 .138.332.695.695 0 0 0 .245.224c.1.055.22.083.363.083a.717.717 0 0 0 .365-.097c.112-.064.22-.154.325-.267v.283c0 .01.002.019.007.026a.05.05 0 0 0 .022.017.15.15 0 0 0 .037.01.397.397 0 0 0 .148-.01.036.036 0 0 0 .02-.017.058.058 0 0 0 .004-.026v-2.921a.048.048 0 0 0-.006-.024.043.043 0 0 0-.02-.018zm-.232 2.402a2.162 2.162 0 0 1-.179.197c-.056.053-.11.096-.162.13a.574.574 0 0 1-.305.093.445.445 0 0 1-.261-.073.533.533 0 0 1-.168-.194.924.924 0 0 1-.09-.275 1.947 1.947 0 0 1-.025-.317c0-.101.01-.202.03-.3a.87.87 0 0 1 .099-.265.558.558 0 0 1 .174-.19.451.451 0 0 1 .256-.071c.11 0 .216.035.317.104.101.07.206.171.314.303zm2.205-1.299a.553.553 0 0 0-.225-.14 1.03 1.03 0 0 0-.341-.05 1.29 1.29 0 0 0-.563.139.452.452 0 0 0-.098.065.113.113 0 0 0-.033.054.345.345 0 0 0-.003.117.08.08 0 0 0 .011.03.04.04 0 0 0 .018.017.063.063 0 0 0 .024.004c.015 0 .04-.01.073-.031s.078-.045.13-.071a1.06 1.06 0 0 1 .183-.071.809.809 0 0 1 .235-.032c.09 0 .166.01.228.033a.363.363 0 0 1 .153.098c.04.043.067.097.085.162s.026.139.026.223v.169h-.313c-.142 0-.271.013-.387.04s-.216.067-.298.121a.569.569 0 0 0-.191.201.57.57 0 0 0-.068.284.6.6 0 0 0 .046.24.507.507 0 0 0 .13.181.58.58 0 0 0 .208.116c.082.027.175.04.278.04a.738.738 0 0 0 .331-.079.993.993 0 0 0 .293-.221v.22c0 .014.005.026.014.033.01.008.023.014.04.018a.327.327 0 0 0 .125 0 .084.084 0 0 0 .037-.018.042.042 0 0 0 .014-.033v-1.331c0-.113-.012-.214-.036-.303a.572.572 0 0 0-.126-.225zm-.1 1.394c-.1.11-.194.192-.283.245a.556.556 0 0 1-.288.079.427.427 0 0 1-.304-.1.355.355 0 0 1-.108-.272.343.343 0 0 1 .155-.305c.052-.036.117-.064.196-.082s.17-.028.274-.028h.359zm2.35-1.555a.667.667 0 0 0-.142 0 .148.148 0 0 0-.049.013c-.012.006-.022.02-.03.04l-.604 1.719h-.008l-.616-1.719a.15.15 0 0 0-.014-.026.056.056 0 0 0-.024-.017.203.203 0 0 0-.044-.01.65.65 0 0 0-.076-.004.595.595 0 0 0-.073.004.074.074 0 0 0-.04.014.037.037 0 0 0-.012.03c0 .011.004.028.01.048l.717 1.92c.003.01.009.021.017.031.01.01.02.018.03.022l-.278.698c-.007.018-.01.032-.008.045s.007.022.016.03a.08.08 0 0 0 .04.017c.017.003.04.004.065.004.05 0 .088-.006.111-.017.023-.01.039-.024.046-.04l.274-.738.735-1.972a.144.144 0 0 0 .011-.047.035.035 0 0 0-.013-.03.082.082 0 0 0-.04-.015zm.387 1.662c-.07 0-.12.014-.147.041-.028.028-.042.085-.042.17 0 .084.013.14.04.167.027.027.075.04.143.04.07 0 .12-.014.148-.042.027-.027.041-.084.041-.169 0-.084-.013-.14-.04-.167-.027-.026-.075-.04-.143-.04z" style="stroke-width:.058634"/></svg>