<svg fill="none" viewBox="0 0 83.076 24" xmlns="http://www.w3.org/2000/svg"><path d="M29.801 4.472c-1.223 0-2.22.357-2.954 1.09s-1.09 1.694-1.09 2.917v.997h-1.77v2.37h1.77v7.357h2.727v-7.356h2.258V9.476h-2.258V8.404c0-.922.677-1.543 1.637-1.543.207 0 .414.019.64.038v-2.37a7.32 7.32 0 0 0-.96-.057zm4.568.113h-2.747v14.618h2.747zm3.329.056c-1.373-.075-2.22 1.881-1.166 2.822.62.62 1.712.62 2.332 0 .32-.32.49-.715.49-1.166 0-.922-.734-1.656-1.656-1.656zm1.373 4.835h-2.746v9.727h2.746zm6.113-.188c-1.373 0-2.502.47-3.386 1.392-.866.922-1.299 2.145-1.299 3.669s.433 2.747 1.299 3.668c.884.922 2.013 1.393 3.386 1.393 1.223 0 2.126-.34 2.747-1.035V24h2.728V9.476H48.08v1.016c-.602-.81-1.561-1.204-2.897-1.204zm.452 2.352c1.373 0 2.295.96 2.295 2.483v.452c0 1.523-.922 2.483-2.295 2.483-1.411 0-2.352-.997-2.352-2.71s.94-2.708 2.352-2.708zm12.457-2.352c-1.317 0-2.277.395-2.879 1.204V9.476h-2.596V24h2.747v-5.625c.62.696 1.543 1.035 2.728 1.035 1.392 0 2.52-.47 3.386-1.393.884-.921 1.317-2.144 1.317-3.668s-.433-2.747-1.317-3.669c-.865-.922-1.994-1.392-3.386-1.392zm-.433 2.352c1.411 0 2.352.997 2.352 2.709s-.94 2.709-2.352 2.709c-1.373 0-2.295-.96-2.295-2.483v-.452c0-1.524.922-2.483 2.295-2.483zm10.351-2.352c-1.185 0-2.163.357-2.935 1.072-.752.696-1.129 1.505-1.129 2.408l2.747.113c0-.696.47-1.279 1.355-1.279.847 0 1.26.508 1.26 1.505v.376l-1.73.094c-2.597.113-3.895 1.092-3.895 2.954 0 1.863 1.223 2.879 3.236 2.879 1.016 0 1.844-.34 2.483-.998v.79h2.653v-6c0-2.56-1.41-3.914-4.045-3.914zm1.298 6.415c0 .997-.715 1.58-1.75 1.58-.752 0-1.128-.3-1.128-.884 0-.64.47-.978 1.411-1.016l1.467-.094zm13.767-6.227h-3.048l-2.22 5.795-2.239-5.795H72.54l3.8 8.861L73.858 24h2.992z" style="stroke-width:.48" fill="#000"/><path d="M0 1.904C0 .597.995-.23 2.222.057l13.352 3.12c1.228.286 2.223 1.219 2.223 2.085v13.171c0 .866-.995 1.8-2.223 2.087L2.222 23.64C.995 23.925 0 23.1 0 21.791zm3.782 4.832c0-1.055.866-1.786 1.933-1.633l5.804.834c1.068.154 1.934.959 1.934 1.798 0 .84-.867 1.465-1.934 1.398l-5.804-.365c-1.068-.067-1.933-.977-1.933-2.032zm-.103 5.112c0-1.092.897-1.942 2.001-1.897l6.008.243c1.105.045 2.001.785 2.001 1.654 0 .869-.897 1.61-2.001 1.654l-6.008.243c-1.105.044-2.001-.805-2.001-1.897zm2.327 7.131c1.229-.187 2.225-1.234 2.225-2.337s-.996-1.935-2.225-1.858c-1.228.078-2.224 1.124-2.224 2.338s.996 2.045 2.224 1.858z" clip-rule="evenodd" fill="url(#a)" fill-rule="evenodd" style="fill:url(#a);stroke-width:.48"/><defs><linearGradient id="a" x1="-32.747" x2="-33.932" y1="-27.328" y2="111.02" gradientTransform="scale(.48)" gradientUnits="userSpaceOnUse"><stop stop-color="#1400FF" offset="0"/><stop stop-color="#FC199B" offset="1"/></linearGradient></defs></svg>