<?xml version="1.0" encoding="UTF-8"?>
<svg fill="none" version="1.1" viewBox="0 0 1565 712" xmlns="http://www.w3.org/2000/svg">
 <rect transform="translate(1 1)" width="1563.1" height="709.28" fill="black" fill-opacity="0"/>
 <rect transform="translate(1 1)" width="1563.1" height="709.28" fill="black" fill-opacity="0"/>
 <path d="m368.22 709.24c-6-2.245-7.678-4.444-6.253-8.192 0.66-1.737 1.929-3.157 2.818-3.157 0.89 0 4.785 2.046 8.655 4.548 3.871 2.502 8.604 5.117 10.518 5.812l3.48 1.264-4.281 0.093c-2.355 0.051-5.81 0.315-7.677 0.585-1.868 0.271-5.135-0.158-7.26-0.953zm-13.617-11.525c-1.13-0.632-3.013-0.845-4.186-0.473-1.476 0.468-2.616-0.229-3.708-2.271-0.868-1.62-2.422-3.237-3.455-3.592-2.37-0.815-7.337-8.863-10.101-16.366-1.397-3.79-3.274-6.409-5.504-7.677-3.955-2.25-4.239-3.271-1.177-4.242 3.503-1.112 4.155-7.287 1.206-11.428-1.407-1.976-2.148-4.296-1.724-5.401 0.501-1.304-0.88-3.592-4.224-6.999-4.22-4.3-5-5.863-5.189-10.394-0.122-2.933-0.837-6.073-1.587-6.978-0.946-1.139-1.139-5.229-0.628-13.315 0.553-8.763 0.231-14.171-1.294-21.709-2.264-11.195-3.421-32.052-2.833-51.081 0.126-4.06-0.4-9.634-1.169-12.387-1.872-6.703-10.484-15.165-21.128-20.758-7.613-4.001-8.684-5.026-11.66-11.171-1.802-3.721-5.247-9.283-7.654-12.359-2.408-3.076-5.025-7.594-5.817-10.039-2.513-7.761-6.943-15.559-9.962-17.538-1.607-1.053-3.44-3.791-4.073-6.084-1.025-3.711-0.755-4.747 2.452-9.409 3.478-5.054 3.519-5.26 1.169-5.875-5.775-1.51-3.346-9.228 7.019-22.309 6.89-8.693 8.908-15.316 6.999-22.967-0.727-2.916-1.378-5.966-1.447-6.778-0.068-0.812-0.586-1.476-1.15-1.476-0.565 0-0.456-1.065 0.241-2.367 1.073-2.006 0.802-2.579-1.778-3.755-3.76-1.713-9.438-0.019-9.46 2.823-0.027 3.407-1.525 3.658-6.466 1.083-2.647-1.38-5.396-2.508-6.109-2.508s-3.487-1.887-6.164-4.193-5.532-4.719-6.344-5.362c-0.812-0.642-1.476-2.393-1.476-3.891s-1.043-3.667-2.318-4.821c-1.275-1.153-2.927-3.942-3.671-6.197-0.978-2.963-1.71-3.742-2.642-2.81-1.946 1.946-4.827 1.577-11.819-1.516-3.656-1.616-7.464-4.377-8.985-6.513-1.452-2.04-4.227-4.528-6.165-5.531-3.2-1.655-4-1.642-8.66 0.138l-5.135 1.961-15.754-7.634c-9.691-4.696-17.212-9.175-19.542-11.639-3.612-3.82-3.729-4.234-2.527-8.969 1.101-4.338 0.914-5.68-1.48-10.627-1.508-3.114-4.801-7.897-7.319-10.629s-4.293-5.43-3.943-5.995c0.35-0.566-1.424-4.378-3.942-8.472-2.86-4.65-4.878-9.632-5.379-13.278-0.643-4.673-1.392-6.103-3.763-7.183-2.513-1.145-3.216-0.999-4.655 0.967-2.027 2.768-1.451 5.691 3.031 15.375 1.821 3.936 3.703 9.77 4.182 12.965 0.479 3.194 1.894 7.814 3.145 10.265 2.962 5.806 1.049 5.704-3.622-0.194-2.755-3.478-3.499-5.386-2.951-7.567 0.584-2.329 9e-3 -3.451-2.854-5.568-4.343-3.211-5.262-5.282-3.667-8.262 0.93-1.738 0.504-3.645-1.859-8.306-2.399-4.735-2.9-7.028-2.306-10.544 0.97-5.747-1.608-10.948-6.4147-12.94-2.7752-1.149-3.7319-2.435-4.2974-5.776-0.4001-2.364-1.1663-6.021-1.7027-8.127-0.558-2.191-0.5174-4.112 0.0949-4.49 0.5886-0.364 0.2034-1.985-0.8559-3.601-1.5601-2.381-1.667-3.508-0.5624-5.933 0.75-1.646 1.0331-3.527 0.6291-4.181s0.6028-2.607 2.2373-4.34c1.6345-1.734 3.8106-5.191 4.8357-7.684 1.0252-2.492 4.1843-7.112 7.0201-10.266 2.836-3.154 6.432-8.68 7.99-12.279 2.163-4.996 3.431-6.548 5.36-6.564 1.389-0.01 2.452 0.644 2.362 1.456-0.376 3.384 2.299 2.342 5.304-2.066 1.772-2.599 2.728-4.902 2.124-5.118-0.603-0.217-1.096-1.194-1.096-2.173 0-0.978-2.445-4.155-5.434-7.059-4.956-4.817-5.275-5.456-3.627-7.277 1.336-1.475 1.493-2.558 0.602-4.149-1.565-2.797 0.905-9.059 3.582-9.084 1.106-0.011 1.422-0.387 0.743-0.886-1.524-1.119-2.214-3.661-2-7.364 0.342-5.914-0.952-8.387-5.349-10.224-2.371-0.991-5.99-3.082-8.042-4.647-2.051-1.565-4.654-2.845-5.7832-2.845-1.1296 0-6.2644-1.0747-11.411-2.3887-8.2738-2.1125-9.732-2.1959-12.598-0.7208-5.9395 3.0565-12.232 4.3025-14.798 2.9295-1.9242-1.0295-4.0242-0.3935-11.347 3.437-4.9421 2.585-10.846 5.101-13.119 5.591-2.2735 0.491-6.6246 2.147-9.669 3.681-8.6355 4.351-21.006 8.738-24.427 8.662-2.2083-0.05-0.7153-1.018 5.1602-3.348 9.9854-3.96 20.246-9.117 21.195-10.652 1.1689-1.892-1.3684-2.57-4.4164-1.181-2.2441 1.022-3.6271 0.926-6.2166-0.43l-3.3305-1.745 3.6228-1.874c4.0954-2.118 5.3837-4.5137 4.4428-8.2628-0.9113-3.6309 4.1133-6.2988 14.938-7.9313 5.816-0.8771 10.238-2.3372 13.214-4.3636 5.2492-3.5734 4.3474-6.2741-1.3123-3.9298-2.6792 1.1098-4.6308 1.1219-8.5986 0.0535-4.822-1.2984-4.9938-1.4838-2.837-3.0609 3.609-2.6389 11.073-4.2262 15.977-3.3976 3.1032 0.5242 5.6451 0.1572 8.2539-1.1918l3.7697-1.9494-2.4815-2.6415c-1.3649-1.4528-2.4816-2.9538-2.4816-3.3356 0-1.0958 7.1101-3.2874 10.665-3.2874 1.7745 0 6.6391-1.2846 10.81-2.8546s13.794-3.7134 21.385-4.7631c12.312-1.7026 14.919-1.7234 24.151-0.1926 5.692 0.9438 13.538 2.0694 17.435 2.5014 3.898 0.432 10.796 1.8032 15.331 3.0472 10.53 2.8891 17.389 2.8538 29.153-0.1498 5.195-1.3264 10.445-2.0942 11.668-1.7062 1.222 0.3879 3.3 0.1283 4.618-0.577 1.816-0.9718 3.224-0.8542 5.815 0.4855 2.341 1.2104 5.23 1.5559 9.164 1.0957 4.15-0.4855 7.784 0.0173 13.09 1.8112 4.039 1.3659 8.525 2.4834 9.969 2.4834 2.558 0 2.566 0.0434 0.333 1.6872-2.191 1.612-2.197 1.7245-0.14 2.5215 1.184 0.4588 5.294 0.5058 9.133 0.1045 6.934-0.7247 6.994-0.7043 8.928 3.0346l1.946 3.7642 2.527-3.1688c1.452-1.821 4.903-3.8839 8.112-4.8499 4.852-1.46 6.324-1.4551 11.196 0.037 3.44 1.0533 7.556 1.437 10.639 0.9917 3.926-0.567 5.749-0.2138 8.31 1.61 3.234 2.3026 3.323 2.3038 6.191 0.081 1.601-1.2404 4.895-2.8081 7.319-3.4838 5.806-1.6174 7.775-5.064 4.288-7.5059-2.465-1.7268-2.357-1.8586 4.123-5.0369 4.834-2.3705 7.01-2.9088 7.952-1.9667 0.942 0.942 0.933 1.9783-0.035 3.786-1.649 3.0811 0.404 7.7383 2.976 6.7514 0.924-0.3548 2.458-0.3469 3.408 0.0177 1.492 0.5725 1.468 1.058-0.176 3.5668-4.541 6.9305 5.64 4.9668 12.532-2.4172 2.802-3.0021 7.144-3.9123 11.213-2.3507 2.628 1.0084 2.382 1.834-1.97 6.606-5.187 5.6868-7.841 6.8499-15.63 6.8499-3.765 0-8.21 0.8156-10.281 1.8866-2.867 1.4825-4.265 1.6058-6.526 0.5755-4.215-1.9206-5.683-0.322-2.659 2.8968l2.581 2.7475-5.149 1.4615c-2.833 0.8039-7.542 1.5393-10.465 1.6343-4.239 0.1377-5.316 0.5979-5.323 2.2736-6e-3 1.4339-2.068 2.943-6.496 4.753-14.347 5.8648-26.518 16.44-22.112 19.212 0.826 0.519 2.136 2.391 2.913 4.16 0.894 2.036 2.617 3.456 4.699 3.873 1.809 0.362 6.477 2.229 10.375 4.148 3.897 1.92 8.681 3.837 10.629 4.262 5.365 1.169 5.412 1.293 2.914 7.632-2.138 5.423-2.181 6.197-0.525 9.401 0.993 1.92 2.456 3.472 3.252 3.449 3.87-0.112 7.498-3.683 9.753-9.6 2.149-5.638 3.128-6.69 9.297-9.985 9.103-4.862 12.888-9.651 11.88-15.028-0.657-3.503-0.316-4.325 2.682-6.459 1.889-1.346 4.39-4.5654 5.558-7.1554 2.611-5.7893 6.806-7.7962 13.88-6.6397 6.273 1.0256 13.692 5.0085 14.588 7.8319 0.368 1.159 0.063 3.2402-0.679 4.6252-1.122 2.098-0.91 2.984 1.27 5.305l2.618 2.786 4.275-2.215c2.351-1.219 6.119-3.596 8.374-5.283l4.099-3.068 0.963 2.604c0.529 1.431 0.68 3.34 0.334 4.242-0.346 0.901-0.077 2.67 0.598 3.931 0.759 1.418 0.818 3.023 0.155 4.208-0.748 1.336-0.248 3.366 1.652 6.712 2.724 4.795 2.724 4.798 0.332 6.473-3.146 2.205-1.127 4.542 2.326 2.694 3.431-1.836 7.357-1.597 9.779 0.594 3.579 3.24 0.603 7.115-8.899 11.585-10.335 4.863-14.941 5.826-28.43 5.945-9.961 0.088-11.28 0.406-20.964 5.048-5.684 2.725-10.335 5.422-10.335 5.993 0 2.437 1.791 2.225 8.663-1.025 4.048-1.916 9.267-3.446 11.752-3.446 4.246-1e-3 4.401 0.13 3.075 2.607-0.768 1.435-2.424 3.441-3.681 4.459-1.975 1.599-2.091 2.274-0.854 4.988 1.854 4.07 6.697 6.029 12.49 5.051l4.578-0.772-3.52 2.428c-1.936 1.336-5.125 2.775-7.087 3.199-1.961 0.424-5.992 1.993-8.958 3.487-3.01 1.516-6.034 2.319-6.847 1.817-1.869-1.156 0.104-2.889 6.177-5.426 5.401-2.257 4.537-4.654-1.283-3.562-2.267 0.425-9.619 3.194-16.337 6.154-10.487 4.619-12.316 5.838-12.927 8.618-0.75 3.416-3.31 5.032-12.311 7.771-2.871 0.873-6.592 2.984-8.268 4.691-1.675 1.707-4.884 4.262-7.13 5.679-2.246 1.416-4.397 3.898-4.779 5.514-0.63 2.665-0.776 2.728-1.565 0.675-1.478-3.845-3.705-0.086-3.833 6.472-0.131 6.719-3.537 11.302-11.006 14.811-7.658 3.598-18.555 12.101-20.763 16.2-1.949 3.62-2.031 5.03-0.83 14.333 1.121 8.679 1.054 10.857-0.421 13.708-1.101 2.13-2.385 3.147-3.454 2.737-2.534-0.972-5.634-11.401-4.765-16.031 0.603-3.217 0.203-4.436-2.194-6.688-1.932-1.814-3.715-2.504-5.23-2.023-1.266 0.401-4.843-0.36-7.954-1.694-4.766-2.043-6.287-2.214-9.69-1.091-2.307 0.761-4.6 2.567-5.35 4.214-1.117 2.451-1.857 2.766-4.941 2.103-1.995-0.429-5.062-1.514-6.817-2.41-4.32-2.207-6.739-2.053-11.592 0.737-2.264 1.302-6.882 3.793-10.264 5.536-3.887 2.003-6.556 4.282-7.256 6.196-0.609 1.665-2.787 8.156-4.84 14.423l-3.732 11.397 1.906 7.356c3.503 13.515 8.375 17.561 18.528 15.384 7.653-1.642 12.25-4.968 13.939-10.087 1.073-3.251 2.231-4.326 5.696-5.288 5.214-1.449 7.392-1.502 9.394-0.231 1.653 1.049 1.072 2.775-6.328 18.796-5.077 10.993-4.712 11.976 3.987 10.721 7.926-1.143 15.17-0.265 16.016 1.94 0.33 0.86-0.206 6.661-1.192 12.891-1.764 11.146-1.751 11.396 0.788 15.503 1.419 2.296 4.079 4.95 5.912 5.898 2.926 1.513 3.844 1.509 7.525-0.029 5.85-2.444 9.026-2.185 13.089 1.065 3.249 2.6 3.708 2.673 6.261 1 1.516-0.993 3.583-3.453 4.594-5.468 2.281-4.543 6.123-7.736 9.35-7.771 1.349-0.014 3.7-1.355 5.226-2.979 3.098-3.298 8.554-4.372 5.887-1.159-2.238 2.696-3.517 11.369-2.075 14.064 1.201 2.244 1.298 2.231 3.483-0.468 1.556-1.922 1.87-3.154 1.019-4.004-2.028-2.029-1.418-3.715 2.357-6.505 3.919-2.898 6.951-2.6 10.333 1.013 2.479 2.65 15.719 6.231 19.513 5.279 5.778-1.45 21.391 8.043 27.257 16.573 2.793 4.062 11.717 8.149 15.64 7.164 8.072-2.025 19.138 6.061 21.725 15.877 0.771 2.923 1.933 5.646 2.582 6.05 1.724 1.074-0.858 5.315-6.5 10.683-3.605 3.429-4.466 4.906-3.452 5.92s2.681 0.125 6.684-3.565c5.823-5.366 7.765-5.911 10.682-2.994 1.774 1.774 1.72 2.135-0.712 4.724-1.448 1.542-3.471 2.837-4.494 2.878-1.079 0.043-0.643 0.561 1.037 1.232 2.307 0.921 3.511 0.662 5.905-1.273 6.236-5.038 7.702-5.28 13.241-2.185 3.602 2.011 5.044 3.543 4.862 5.163-0.505 4.504 0.557 5.501 3.68 3.455 2.482-1.626 4.184-1.703 12.488-0.566 8.832 1.209 9.989 1.691 14.226 5.929 3.146 3.146 6.685 5.215 11.13 6.507 5.969 1.735 6.617 2.264 7.7 6.284 1.569 5.829-0.269 12.297-5.243 18.441-2.124 2.624-4.728 6.477-5.787 8.562-1.058 2.084-3.308 5.174-5 6.867-2.865 2.864-3.024 3.581-2.31 10.382 1.395 13.288-5.105 38.079-11.374 43.38-2.041 1.726-3.788 2.132-7.024 1.631-2.661-0.413-4.63-0.147-5.15 0.695-0.463 0.749-3.042 2.329-5.731 3.511-2.69 1.183-6.693 3.691-8.897 5.573-3.815 3.259-3.943 3.62-2.659 7.51 1.48 4.485 0.483 9.795-2.689 14.324-1.026 1.465-1.865 3.956-1.865 5.536 0 1.581-1.232 4.519-2.738 6.529s-4.412 6.611-6.457 10.225c-5.03 8.89-8.055 10.431-15.35 7.816-6.33-2.269-9.706-2.54-9.706-0.779 0 0.664 1.262 1.781 2.804 2.484s3.946 3.564 5.341 6.357c2.078 4.161 2.298 5.605 1.215 7.982-1.678 3.682-8.092 6.773-14.055 6.773-5.281 0-6.591 1.292-4.767 4.7 1.126 2.104 0.369 5.489-1.809 8.084-0.176 0.21-2.025-0.5-4.109-1.577-4.974-2.572-6.735-0.934-4.221 3.928 1.022 1.977 2.967 3.946 4.32 4.376 2.327 0.738 2.352 0.902 0.461 2.992-1.102 1.218-1.674 3.066-1.272 4.112 0.431 1.124-0.531 3.552-2.357 5.946-2.968 3.892-3.011 4.161-1.108 7.065 1.088 1.661 2.785 3.329 3.772 3.708 3.557 1.365 4.146 6.028 1.434 11.344-2.717 5.326-3.134 10.666-1.031 13.2 1.912 2.304-4.521 6.792-7.414 5.173zm-87.044-511.53c3.156-6.594 9.028-11.505 13.757-11.505 3.404 0 3.444 0.552 0.328 4.514l-2.451 3.116 2.514 2.036c2.026 1.64 3.071 1.782 5.381 0.73 1.576-0.718 3.192-2.333 3.591-3.589 0.542-1.708 1.424-2.108 3.503-1.586 1.925 0.484 3.13 0.07 3.922-1.345 2.4-4.289-3.707-9.773-8.203-7.367-3.216 1.722-7.419-1.703-6.522-5.316 0.332-1.338-0.352-3.669-1.536-5.232-2.441-3.222-6.155-3.561-14.284-1.305-2.923 0.812-6.256 1.439-7.407 1.395-1.151-0.045-1.784 0.418-1.407 1.029 0.378 0.61 0.256 1.121-0.269 1.135-0.526 0.015-2.278 1.043-3.895 2.285l-2.939 2.258 3.301 1.255c2.58 0.981 4.101 0.841 6.967-0.641 3.368-1.742 3.992-1.741 7.668 0.012 2.214 1.056 5.237 1.598 6.768 1.214 1.521-0.382 3.092-0.167 3.491 0.477 0.407 0.659-1.257 1.507-3.8 1.937-6.912 1.167-10.503 4.046-15.517 12.436-4.187 7.009-4.428 7.854-2.758 9.707 1.637 1.818 2.09 1.846 4.336 0.275 1.38-0.965 3.837-4.531 5.461-7.925zm21.458 7.291c4.205-2.145 4.609-2.684 3.127-4.166-1.481-1.481-2.417-1.385-7.238 0.747-5.659 2.504-7.455 5.882-3.127 5.882 1.325 0 4.582-1.108 7.238-2.463zm20.942-8.925c2.46-1.723 2.551-2.061 0.816-3.032-2.554-1.429-10.146 1.034-10.146 3.292 0 2.326 5.871 2.163 9.33-0.26zm88.699 510.04c0-0.52 0.638-1.583 1.417-2.363 0.78-0.779 0.971-1.417 0.426-1.417-0.546 0-1.629 0.872-2.408 1.937-1.118 1.529-1.891 1.661-3.674 0.626-1.274-0.739-1.583-1.326-0.711-1.346 0.851-0.02 1.218-0.567 0.816-1.217-0.771-1.247 1.256-1.587 7.087-1.189 5.204 0.355 5.727 1.115 2.511 3.645-2.997 2.357-5.464 2.955-5.464 1.324zm986.35-29.642c-3.38-2.141 3.65-6.868 21.1-14.177 4.87-2.042 12.3-6.31 16.5-9.487 7.14-5.401 7.73-5.635 9.15-3.613 2.15 3.069 0.88 5.29-4.37 7.657-2.5 1.131-5.66 3.324-7.01 4.872-1.34 1.549-3.51 2.816-4.81 2.816s-4.36 1.79-6.8 3.978c-8.34 7.488-18.91 11.026-23.76 7.954zm-82.66-15.343c-1.23-0.778-1.3-1.578-0.3-3.448 0.72-1.339 1.31-4.1 1.31-6.135 0-3.327 0.27-3.606 2.65-2.766 1.47 0.515 4.52 1.005 6.8 1.09 2.27 0.085 4.54 0.231 5.04 0.326 1.96 0.367-3.27 6.322-7.97 9.077-5.6 3.282-5.37 3.225-7.53 1.856zm136.48-10.328c-0.41-0.411 0.56-1.777 2.16-3.036 2.41-1.896 2.69-2.697 1.64-4.666-1.53-2.849 0.74-5.906 5.98-8.079 4.06-1.683 5.09-5.098 4-13.341-0.75-5.671-0.66-6.025 1.17-4.514 1.43 1.187 1.79 2.682 1.27 5.409-0.56 2.988-0.05 4.541 2.44 7.503 2.69 3.2 3.49 3.548 5.59 2.426 2.08-1.117 2.33-1.015 1.67 0.698-0.42 1.103-0.77 2.214-0.77 2.469s-1.72 1.348-3.84 2.429c-2.11 1.081-6.23 3.94-9.15 6.353-4.75 3.925-9.64 7.096-10.94 7.096-0.26 0-0.81-0.336-1.22-0.747zm-124.9-15.254c-2.48-2.648-2.94-2.75-5.33-1.184-3.05 1.995-8.77 0.829-13.36-2.721-2.44-1.894-2.61-2.504-1.35-4.861 1.08-2.012 1.11-3.422 0.14-5.555-0.72-1.573-1.3-3.897-1.3-5.166 0-2.861-1.86-2.998-3.4-0.249-0.63 1.131-1.49 1.718-1.9 1.305-0.42-0.414 0.95-2.695 3.04-5.07 5.13-5.846 3.13-7.432-3.65-2.892-2.92 1.956-5.5 4.093-5.73 4.749s-1.64-1.368-3.12-4.498c-1.61-3.394-4.39-6.804-6.89-8.45-3.75-2.472-5.03-2.676-12.24-1.958-10.57 1.052-20.77 3.659-27.44 7.015-3.04 1.526-8.96 3.088-13.53 3.567-4.47 0.469-11.57 2.151-15.79 3.739-6.45 2.427-8.29 2.682-11.55 1.604-4.39-1.447-6.21-4.429-3.37-5.517 1.02-0.394 2.89-3.104 4.14-6.023 2-4.672 2.11-6.126 0.92-12.163-0.98-4.994-1.01-9.722-0.1-17.411 0.69-5.805 0.95-11.698 0.59-13.095-0.37-1.397 0.2-4.817 1.27-7.6 1.87-4.907 2.32-5.228 14.99-10.595 7.19-3.043 14.55-5.534 16.35-5.534 4.88 0 10.93-4.645 14.26-10.956 2.06-3.901 3.49-5.385 4.72-4.907 3.45 1.333 4.13 1.071 3.87-1.487-0.17-1.645 0.53-2.841 1.94-3.287 1.22-0.386 3.46-2.537 4.99-4.78 1.57-2.295 4.79-4.882 7.38-5.92 4.31-1.731 4.74-1.705 7.08 0.427 4.33 3.933 7.4 5.081 8.86 3.317 0.71-0.858 0.96-1.898 0.54-2.311-1.35-1.352 4.84-9.114 7.86-9.859 1.63-0.401 4.96-1.733 7.41-2.961 3.82-1.915 5.17-2.042 9.45-0.892 9.23 2.479 9.54 2.884 6.11 8.074-4.42 6.674-3.25 9.284 7.58 16.91 5.01 3.521 9.73 6.191 10.5 5.935 0.77-0.257 3.2-2.952 5.4-5.991 3.01-4.14 4.17-7.151 4.65-12.02 0.69-6.916 3.99-16.535 5.69-16.535 0.56 0 1.85 2.845 2.86 6.321 1.01 3.477 3.12 7.534 4.7 9.016 3.69 3.464 5.83 13.151 4.18 18.874-1.1 3.792-0.89 4.401 2.87 8.268 2.23 2.295 5.76 7.894 7.85 12.441 2.08 4.547 5.83 10.981 8.34 14.297l4.56 6.03-1.3 9.316c-0.94 6.759-2.39 11.264-5.3 16.411-4.45 7.884-11.1 15.407-14.61 16.521-1.26 0.4-4.19 3.359-6.5 6.575-2.31 3.217-4.72 5.848-5.35 5.848-0.64 0-3.34 2.76-6.01 6.134-4.45 5.626-5.26 6.141-9.9 6.228-3.55 0.067-6.28 1.032-9.2 3.259l-4.15 3.163-2.72-2.896zm-575.91-24.833c-2.501-2.501-2.919-3.78-2.36-7.225 0.526-3.242 0.025-5.148-2.222-8.455-1.595-2.348-2.901-4.847-2.901-5.553s-2.088-4.083-4.641-7.505c-3.945-5.288-4.756-7.4-5.406-14.091-1.148-11.805-4.918-24.582-9.984-33.843-2.491-4.553-4.883-10.464-5.317-13.137-0.923-5.686 1.386-14.149 6.658-24.402l3.507-6.821-1.971-5.933c-1.102-3.318-1.641-7.245-1.222-8.913 0.49-1.952-0.037-4.277-1.525-6.734-1.25-2.065-3.107-6.677-4.126-10.25-1.361-4.772-3.258-7.875-7.149-11.693-7.486-7.344-8.459-10.235-6.136-18.226 4.729-16.268-0.38-25.756-12.861-23.885-4.859 0.729-5.045 0.638-5.732-2.795-0.527-2.634-1.954-4.183-5.539-6.012-4.659-2.377-6.652-2.386-12.373-0.056-1.299 0.529-6.614 2.363-11.81 4.075-7.814 2.575-10.161 2.907-13.562 1.92-3.222-0.934-5.936-0.693-12.53 1.116-6.814 1.87-9.284 2.07-12.965 1.054-7.682-2.121-20.88-14.017-22.757-20.512-1.453-5.026-10.488-16.74-13.563-17.584-1.954-0.536-2.194-0.951-0.998-1.723 1.203-0.777 0.994-1.17-0.886-1.662-2.985-0.78-3.282-3.219-0.395-3.245 1.767-0.015 1.809-0.184 0.295-1.163-1.115-0.721-1.239-1.151-0.335-1.163 0.938-0.011 0.581-1.468-1.028-4.196-2.266-3.839-2.313-4.347-0.582-6.259 5.284-5.839 6.442-18.41 2.425-26.331-1.918-3.781-0.685-9.004 3.407-14.434 1.541-2.045 4.549-7.02 6.685-11.055 3.736-7.06 12.064-16.875 14.318-16.875 2.495 0 10.543-8.652 10.543-11.333 0-6.055 3.619-12.091 9.521-15.878 3.171-2.035 6.887-5.514 8.257-7.732 2.804-4.536 3.201-4.684 6.466-2.408 1.281 0.893 4.465 1.981 7.075 2.419 3.981 0.668 5.884 0.187 11.811-2.982 10.198-5.454 16.5-6.816 28.169-6.088 7.696 0.48 11.16 0.173 14.891-1.32 5.493-2.198 10.243-0.897 8.957 2.454-0.386 1.006-0.15 2.496 0.524 3.309 0.85 1.023 0.843 2.489-0.021 4.761-1.086 2.855-0.845 3.705 1.844 6.512 1.702 1.775 4.747 3.559 6.769 3.963 9.492 1.898 12.191 3.128 14.151 6.446 1.436 2.431 3.319 3.679 6.431 4.263 2.42 0.454 5.934 1.618 7.81 2.588 3.184 1.647 3.596 1.587 6.252-0.908 1.785-1.677 2.595-3.453 2.176-4.772-0.367-1.156-0.087-3.185 0.621-4.508 1.828-3.415 7.016-3.08 15.116 0.976 8.826 4.418 25.563 7.571 31.496 5.933 2.854-0.788 5.598-0.799 8.096-0.031 8.161 2.508 12.34 0.545 13.455-6.32 0.37-2.281 1.001-4.146 1.404-4.146 0.763 0 1.163-3.429 1.273-10.925 0.036-2.436 0.612-4.429 1.28-4.429 0.795 0 0.756-0.856-0.114-2.481-1.452-2.714-4.398-2.652-11.447 0.241-3.344 1.372-4.274 1.314-7.269-0.456-3.884-2.294-7.869-2.638-9.018-0.778-0.855 1.383-6.894 0.413-10.169-1.632-2.353-1.47-4.552-5.844-4.552-9.056 0-1.231-1.196-3.081-2.657-4.111-2.263-1.593-2.394-2.044-0.886-3.031 0.974-0.638 2.978-0.876 4.454-0.529 1.881 0.443 3.611-0.298 5.796-2.483 2.056-2.055 4.556-3.19 7.357-3.339 2.333-0.124 5.713-1.194 7.511-2.379 3.903-2.572 12.764-1.857 19.639 1.584 9.27 4.64 17.503 4.367 20.817-0.69 1.724-2.631 1.734-3.184 0.097-5.681-0.996-1.521-5.785-5.026-10.64-7.789l-8.829-5.023 1.654-3.198c0.91-1.76 1.357-3.497 0.993-3.861-0.364-0.363-0.225-1.361 0.309-2.216s1.075-2.241 1.202-3.08c0.271-1.789-1.634-1.295-11.026 2.859-5.453 2.411-6.263 3.15-5.053 4.607 0.792 0.955 2.571 1.759 3.953 1.788 1.938 0.04 1.479 0.597-2.008 2.438-4.235 2.234-4.708 2.263-7.461 0.459-2.355-1.543-2.662-2.26-1.547-3.605 1.108-1.334 0.942-1.848-0.806-2.505-1.21-0.455-2.77-1.586-3.467-2.515-3.383-4.509-14.116 7.353-17.237 19.051-1.466 5.49-1.417 5.776 1.341 7.857l2.863 2.159-5.252 1.083c-2.888 0.595-6.78 0.665-8.65 0.154-3.449-0.942-7.821 0.478-7.821 2.541 0 0.606-0.804 0.794-1.787 0.417-0.982-0.377-2.542-0.058-3.466 0.709-1.434 1.189-1.271 2.164 1.104 6.631 2.573 4.839 2.652 5.5 1.047 8.717-2.011 4.031-3.881 3.732-6.721-1.077-1.981-3.353-1.967-3.43 0.653-3.802 3.306-0.469 3.519-2.574 0.312-3.087-7.318-1.17-11.22-5.026-11.22-11.086 0-4.729-4.384-9.942-9.7-11.535-2.763-0.828-5.766-2.566-6.674-3.862-0.908-1.297-3.566-3.157-5.906-4.135-2.341-0.978-4.96-2.784-5.821-4.013-1.236-1.765-2.049-1.977-3.858-1.009-1.261 0.675-2.292 1.987-2.292 2.916 0 3.067 15.054 16.94 22.412 20.654 7.802 3.939 9.021 5.345 3.6 4.154-4.833-1.061-6.149 1e-3 -4.496 3.63 1.161 2.548 0.971 3.323-1.365 5.567l-2.713 2.608 0.617-3.519c0.98-5.584-6.383-13.607-12.49-13.607-2.238 0-10.838-8.342-13.091-12.699-2.407-4.655-5.086-5.554-8.88-2.981-5.717 3.876-10.003 5.186-14.487 4.429-5.956-1.006-9.704 1.071-8.754 4.852 0.495 1.975 0.219 2.856-0.894 2.856-0.886 0-3.155 1.328-5.042 2.951-1.888 1.623-3.838 2.952-4.335 2.953-1.461 2e-3 -5.583 7.464-5.588 10.115-5e-3 2.535-4.624 7.531-9.08 9.82-1.419 0.729-4.722 1.326-7.34 1.326-3.603 0-5.079 0.593-6.067 2.44-1.294 2.418-1.333 2.412-4.36-0.615-2.84-2.84-4.475-3.55-10.205-4.437-3.011-0.466-3.52-7.281-1.268-16.992 0.963-4.151 1.435-8.803 1.05-10.337-1.119-4.459 2.385-7.089 8.245-6.188 13.533 2.078 21.449 2.193 23.305 0.338 2.549-2.55 3.699-10.958 2.143-15.673-1.014-3.075-2.41-4.332-6.575-5.922-6.125-2.339-6.254-4.602-0.266-4.662 2.282-0.023 5.573-0.975 7.314-2.116s3.667-1.765 4.279-1.387c1.67 1.032 7.992-2.612 10.092-5.816 1.014-1.549 3.012-3.114 4.44-3.478 1.427-0.363 5.252-3.137 8.5-6.162 4.605-4.289 7.021-5.634 10.969-6.105 4.892-0.584 9.811-4.607 7.502-6.135-1.436-0.949-2.635-6.668-1.835-8.751 0.378-0.987 2.05-2.687 3.715-3.778l3.027-1.984-0.777 4.86c-0.674 4.218-0.502 4.814 1.303 4.512 1.144-0.191 3.284-1.009 4.755-1.817 2.24-1.231 2.789-1.171 3.38 0.368 1.012 2.638-1.802 5.739-3.745 4.127-1.073-0.89-1.753-0.858-2.353 0.112-0.618 1-1.102 0.946-1.812-0.204-0.533-0.863-1.241-1.297-1.572-0.966s0.613 2.127 2.098 3.99c2.504 3.14 2.981 3.289 6.55 2.045 3.056-1.066 4.524-0.993 7.126 0.353 2.937 1.519 3.929 1.446 9.575-0.699 4.947-1.88 6.896-2.121 9.086-1.123 2.014 0.918 3.506 0.899 5.377-0.068 5.313-2.745 6.784-4.815 6.125-8.615-0.978-5.631 0.813-7.476 5.528-5.696 3.209 1.211 4.147 1.163 5.597-0.287 1.536-1.536 1.403-2.103-1.113-4.781-2.421-2.578-2.591-3.218-1.115-4.214 0.958-0.646 4.546-0.877 7.973-0.514 6.273 0.664 14.09-1.786 12.728-3.99-1.192-1.9304-8.393-2.4881-14.493-1.123-5.409 1.211-6.829 1.113-10.976-0.7569-6.439-2.904-7.198-6.3015-2.781-12.458 5.685-7.9239 6.725-10.449 5.106-12.4-2.399-2.8895-4.754-1.9475-10.233 4.0915-2.895 3.1911-6.839 6.4549-8.766 7.2528-1.926 0.798-4.309 3.011-5.295 4.9177-1.606 3.1053-1.604 3.7561 0.024 6.24 0.999 1.5252 2.894 3.1149 4.211 3.5328 3.623 1.1501 2.906 3.3081-2.276 6.8541-1.594 1.09-3.72 4.176-4.725 6.856-1.258 3.359-3.172 5.651-6.157 7.374-4.208 2.429-4.399 2.439-6.724 0.334-1.316-1.191-2.713-3.62-3.104-5.399-0.39-1.778-2.164-4.975-3.941-7.104l-3.232-3.871-4.097 2.498c-2.254 1.374-5.161 2.488-6.46 2.476-3.748-0.034-8.087-4.083-8.377-7.816-0.144-1.855-0.627-4.2831-1.071-5.3953-1.059-2.6454 4.23-7.6066 9.726-9.1242 5.516-1.523 16.704-9.3639 18.611-13.043 0.848-1.6365 3.721-4.9296 6.385-7.3181 2.664-2.3884 4.843-4.869 4.843-5.5124 0-0.6433 2.525-2.0694 5.611-3.1689 3.085-1.0995 8.267-3.0945 11.515-4.4333 3.988-1.6437 8.974-2.5127 15.354-2.6759 11.148-0.2852 18.438 1.1925 24.454 4.9563 3.018 1.8886 5.4 2.5329 7.68 2.077 4.077-0.8155 25.815 5.922 26.72 8.2823 0.911 2.3722-5.324 4.6115-10.688 3.839-2.456-0.3539-7.537-1.3001-11.29-2.1027-5.053-1.0805-7.169-1.1146-8.152-0.1314s-0.492 1.7089 1.893 2.7955c1.771 0.8072 3.989 2.9533 4.928 4.7692 2.391 4.6238 10.049 8.393 14 6.8908 3.796-1.4433 3.77-1.8985-0.235-4.0714-3.705-2.0098-1.995-2.4443 2.657-0.6754 3.715 1.4124 7.924-0.3447 6.944-2.8988-0.459-1.1962 0.832-2.0599 4.473-2.9929 7.792-1.9967 8.362-2.2821 7.716-3.8623-2.445-5.9768-2.479-5.8051 1.078-5.399 1.898 0.2168 3.285 1.0285 3.127 1.8305-0.156 0.7926 0.833 2.0387 2.198 2.7691 2.05 1.0973 3.667 0.7064 9.305-2.2485 8.266-4.333 14.701-5.7457 17.101-3.754 1.338 1.1105 3.557 1.1183 9.979 0.0351 4.542-0.7662 8.775-1.0741 9.405-0.6844 0.631 0.3897 1.495 0.1451 1.921-0.5435 0.93-1.5059-1.644-4.923-3.053-4.0522-1.701 1.0513-7.287-0.832-6.072-2.0471 1.224-1.2235 34.093 6.4355 36.06 8.4026 1.326 1.326 5.524-0.443 5.524-2.3277 0-0.6352-2.344-2.2937-5.209-3.6857-8.883-4.3157-9.454-11.228-1.1-13.324 4.849-1.2169 6.946 0.1868 13.652 9.1396 8.706 11.623 8.484 11.032 5.64 15.027-2.107 2.9581-2.234 3.6504-0.772 4.2112 2.769 1.0625 8.695-2.6556 9.529-5.9787 0.977-3.8938-0.847-7.2122-5.205-9.4656-3.426-1.7715-5.905-5.0176-5.905-7.7307 0-0.9249 1.285-1.1555 3.838-0.6891 3.829 0.6993 6.996-0.6892 15.666-6.8685 1.983-1.4132 5.335-2.3444 8.715-2.421 6.856-0.1555 9.075-1.3065 7.102-3.6837-0.774-0.9322-1.161-1.9409-0.86-2.2414 1.508-1.5084 20.952-4.2264 25.43-3.5549 4.309 0.6462 5.643 0.2966 9.188-2.4073 2.281-1.7398 4.147-3.6316 4.147-4.2041 0-1.4437-10.321-1.3147-11.22 0.1402-1.237 2.0019-2.841 1.3053-2.39-1.038 0.381-1.9785-0.618-2.3005-9.221-2.9703-23.491-1.829-25.401-2.2582-22.582-5.0763 2.477-2.4777 8.554-2.4297 13.641 0.1078 2.084 1.0397 5.536 1.8904 7.672 1.8904 2.135 0 4.211 0.5314 4.612 1.181 0.402 0.6496 2.471 1.1811 4.597 1.1811 5.891 0 17.28 2.5444 16.565 3.7007-0.348 0.563 0.754 1.0236 2.449 1.0236 1.694 0 4.783 0.9153 6.863 2.0339 2.79 1.5044 6.7 2.0456 15 2.0789 8.92 0.0357 11.88 0.4939 14.47 2.2356 1.78 1.2049 3.24 2.5282 3.23 2.9407s-2.74 2.2495-6.06 4.0823c-8.02 4.4264-6.33 6.3554 3.38 3.8408 6.28-1.6288 7.73-1.6392 12.93-0.0937 4.27 1.268 6.94 1.4308 9.83 0.6003 2.89-0.8291 5.86-0.651 10.9 0.6535 5.25 1.3612 7.97 1.4997 11.3 0.575 7.6-2.1102 16.95-1.5142 22.37 1.4262 2.69 1.4616 7.67 4.1659 11.05 6.0097 5.99 3.2682 6.25 3.3043 10.4 1.4413 3.48-1.5595 5.42-1.6899 10.55-0.7091 5.1 0.9749 6.96 0.8561 9.83-0.629 2.81-1.4529 3.26-2.1671 2.19-3.4592-2.07-2.4987 5.28-3.4276 14.32-1.8084 4.14 0.7416 9.39 1.4819 11.67 1.6451 2.27 0.1632 6.71 1.4588 9.87 2.8792 4.81 2.1661 8.44 2.6568 22.52 3.0435 13.36 0.367 17.62 0.9016 20.84 2.6194 3.27 1.7435 7 2.187 19.4 2.3079 11.41 0.1113 16.53 0.6524 19.91 2.1072 5.46 2.3484 7.65 1.4871 4.68-1.8423-2.14-2.3949-2.13-2.3982 6.12-1.5786 13.82 1.3734 30.41 4.3986 36.02 6.5713 2.93 1.1313 8.5 2.4459 12.38 2.9213 3.89 0.4754 9.56 2.1267 12.6 3.6695 4.63 2.3417 6.13 2.6004 9.09 1.566 4.06-1.4146 6.69-0.396 12.89 4.9866l3.85 3.3445-2.9 0.7283c-2.91 0.7309-10.64-1.1835-13.31-3.295-0.78-0.6209-1.88-0.8461-2.44-0.5004-0.56 0.3456-3.32-0.1656-6.14-1.1361-6.6-2.2731-9.53-1.4193-6.52 1.9009 2.05 2.2676 2.01 2.3152-1.91 2.0423-7.32-0.5109-5.31 1.6519 5.44 5.8457 5.85 2.2802 10.88 4.3884 11.19 4.6847 1.11 1.073-2.55 2.4031-5.21 1.8948-2.92-0.5582-10.11 2.5754-10.11 4.4051 0 0.6076-1.14 2.1639-2.53 3.4584-2.32 2.1624-2.8 2.2112-5.9 0.6062-2.91-1.5024-3.84-1.518-6.63-0.1112-1.79 0.8999-4.84 2.0192-6.78 2.4872-1.95 0.468-4.2 1.401-5.01 2.072-2.38 1.972 1.81 7.714 7.72 10.572 3.21 1.556 5.54 3.641 6.23 5.585 0.61 1.706 1.9 4.507 2.86 6.225 1.58 2.801 1.56 3.199-0.13 3.849-1.24 0.476-1.6 1.43-1.06 2.781 0.45 1.131 0.96 3.386 1.13 5.01s0.69 3.834 1.16 4.913c0.6 1.403 0.1 2.194-1.76 2.785-2.07 0.658-3.47-0.135-6.87-3.902-2.36-2.6-6.28-6.179-8.72-7.955-2.44-1.775-6.82-6.39-9.73-10.257-5.12-6.82-5.23-7.131-3.53-10.421 0.97-1.866 1.77-4.614 1.8-6.108 0.02-1.494 0.77-4.036 1.66-5.649 1.71-3.0815 1.05-5.5418-2.6-9.7254-2.39-2.7469-6.65-0.6877-5.58 2.6972 0.99 3.1184-2.04 4.1289-5.54 1.8433-1.51-0.9909-5-2.1603-7.74-2.5986-4.72-0.7525-5.07-0.6078-6.29 2.5977-0.71 1.8671-1.01 4.8186-0.66 6.5588 0.54 2.712 0.16 3.267-2.63 3.879-1.89 0.417-5.15-0.076-7.79-1.183-2.91-1.216-5.66-1.583-7.63-1.022-1.69 0.481-7.42 0.918-12.73 0.971-8.4 0.084-10.02 0.451-12.58 2.851-1.61 1.515-3.55 5.235-4.3 8.267-0.76 3.032-2.14 6.696-3.08 8.142-1.62 2.499-1.46 2.752 3.17 5.113 5.02 2.563 10.5 3.238 14.65 1.807 3.2-1.105 12.97 6.513 16.02 12.493 1.25 2.449 3.32 5.012 4.59 5.694 4.83 2.582 5.81 19.522 1.77 30.596-2.79 7.668-5.92 10.175-10.51 8.43-1.75-0.667-3.36-1.212-3.58-1.212s-1.53 2.18-2.92 4.845c-1.82 3.499-2.18 5.262-1.28 6.346 1.72 2.074 0.45 4.772-2.99 6.339-1.59 0.724-2.89 1.831-2.89 2.46s3.69 3.686 8.21 6.794c5.75 3.955 8.82 6.992 10.22 10.114 1.11 2.455 1.8 4.658 1.54 4.897-0.27 0.238-2.68 1.541-5.37 2.895l-4.88 2.463-2.94-6.746c-3.29-7.551-6.11-10.587-11.08-11.925-2.51-0.674-3.38-1.629-3.38-3.697 0-1.896-1.22-3.507-3.83-5.032-3.79-2.221-3.86-2.219-7.9 0.275-4.04 2.496-4.08 2.498-5.32 0.181-0.69-1.286-1.25-3.151-1.25-4.146 0-0.994-1-2.339-2.21-2.988-1.8-0.966-2.94-0.382-6.26 3.206-2.23 2.413-5.09 4.975-6.35 5.692-1.96 1.113-2.06 1.584-0.71 3.21 0.87 1.049 3.87 3.187 6.67 4.752 4.46 2.49 5.31 2.632 6.81 1.129 1.43-1.427 2.59-1.48 6.9-0.31l5.19 1.407-2.89 1.931c-5.36 3.581-7.05 5.46-7.81 8.692-0.63 2.652-0.26 3.45 2.12 4.535 1.59 0.724 4.01 3.612 5.37 6.419 1.36 2.806 4.09 6.052 6.05 7.213 4.33 2.554 5.58 5.267 3.08 6.664-2.32 1.302-1.21 3.249 1.86 3.249 3.68 0 3.7 2.194 0.14 14.858-4.3 15.338-8.19 20.455-18.36 24.175-4 1.465-8.88 2.752-10.82 2.86-4.53 0.251-8.05 2.169-11.11 6.065l-2.43 3.093-1.14-2.984c-1.48-3.893-4.87-4.872-9.74-2.811-4.47 1.889-7.41 4.901-8.6 8.796-1.06 3.485 2.7 9.616 8.93 14.548 5.11 4.05 10.85 14.212 12.19 21.606 1.18 6.431-0.9 10.653-6.47 13.164-2.54 1.144-4.91 3.02-5.28 4.169-0.87 2.76-6.12 6.195-7.08 4.639-0.4-0.648-0.41-2.162-0.03-3.364 0.38-1.201 0.36-3.047-0.04-4.101-0.59-1.517-1.23-1.653-3.1-0.655-1.94 1.039-2.69 0.776-4.26-1.498-3.85-5.589-15.02-14.57-18.12-14.57-1.09 0-1.51 1.312-1.32 4.134 0.15 2.273-0.32 6.706-1.03 9.85-1.17 5.123-1.05 6.061 1.15 9.035 1.35 1.825 2.79 4.654 3.2 6.287 0.41 1.658 3.83 5.445 7.73 8.578 6.52 5.221 7.2 6.252 9.94 14.926 1.62 5.125 2.95 9.822 2.95 10.438 0 2.003-2.47 1.192-7.62-2.506-5.32-3.823-8.72-9.87-11.56-20.56-1.23-4.641-2.58-6.631-6.41-9.448-4.7-3.456-4.84-3.758-4.46-9.475 0.21-3.248 0.75-7.852 1.18-10.23 0.62-3.349 0.11-5.749-2.24-10.63-1.67-3.467-3.65-8.793-4.4-11.834-1.66-6.795-4.01-7.933-8.16-3.956-1.71 1.644-3.45 2.99-3.85 2.99-1.88 0-4.47-4.002-3.85-5.954 1.13-3.545-5.79-15.903-9.84-17.58-2.21-0.918-4.24-3.144-5.6-6.15-2.35-5.223-4.99-7.221-7.63-5.776-0.96 0.524-4.79 1.578-8.52 2.343-6.84 1.401-9.29 3.471-8.35 7.048 0.34 1.317-0.85 2.589-3.72 3.957-2.33 1.108-4.83 3.338-5.57 4.954-0.73 1.617-2.35 3.263-3.6 3.658s-3.17 2.203-4.27 4.017-4.39 5.129-7.3 7.367c-3.99 3.063-5.23 4.776-5.03 6.931 1.16 12.594-0.62 23.132-4.96 29.39-4.23 6.104-4.52 6.274-8.1 4.643-1.97-0.897-3.19-2.65-3.69-5.327-0.41-2.193-2.79-8.375-5.28-13.735-15.11-32.436-17.339-38.625-16.052-44.483 0.872-3.958-1.217-9.93-3.232-9.254-0.808 0.272-1.483 1.245-1.5 2.163-0.101 5.391-6.158 6.219-10.888 1.488l-3.135-3.134 2.697-0.998c3.034-1.123 2.756-4.15-0.331-3.595-1.097 0.197-3.607-0.998-5.578-2.657s-4.039-3.016-4.595-3.016-1.35-1.069-1.765-2.375c-1.088-3.43-7.354-6.414-10.494-4.998-2.825 1.274-28.462 1.008-32.753-0.34-1.546-0.486-4.405-2.708-6.354-4.938-3.521-4.03-3.575-4.046-8.858-2.623-5.005 1.35-5.732 1.222-12.474-2.181-5.826-2.941-7.571-4.527-9.369-8.515-2.295-5.088-7.391-8.773-10.489-7.584-0.976 0.375-2.116 2.235-2.533 4.135-0.599 2.727 0.012 4.5 2.908 8.438 2.016 2.742 4.213 7.017 4.882 9.5 1.436 5.335 4.273 6.922 6.624 3.706 1.419-1.94 1.802-2.008 2.763-0.487 0.613 0.971 0.944 2.298 0.735 2.947-0.657 2.042 6.159 5.401 9.339 4.603 1.607-0.403 5.041-3.14 7.63-6.082 4.081-4.636 5.505-4.949 4.808-1.056-0.47 2.62 1.592 5.691 5.004 7.455 5.27 2.724 12.613 8.794 12.613 10.426 0 0.752-1.381 2.656-3.068 4.231s-4.115 4.907-5.396 7.405c-3.112 6.069-12.131 14.946-15.185 14.946-3.53 0-8.781 2.981-10.871 6.171-0.991 1.511-3.594 3.643-5.786 4.738-11.226 5.604-24.741 11.285-28.545 11.999-4.067 0.763-4.396 0.578-6.551-3.671-1.247-2.46-2.663-7.397-3.145-10.969-0.628-4.647-1.844-7.601-4.274-10.376-1.869-2.134-3.398-4.392-3.398-5.018s-2.131-3.335-4.736-6.019c-3.244-3.343-5.341-6.971-6.655-11.517-1.055-3.65-3.202-8.231-4.771-10.179-10.84-13.461-14.049-18.207-15.665-23.164-2.142-6.569-3.953-7.629-4.788-2.804l-0.594 3.425-3.995-5.045c-6.157-7.773-6.933-4.24-1.153 5.25 2.735 4.491 7.095 12.417 9.689 17.613 2.593 5.197 5.956 11.093 7.472 13.104 1.561 2.069 2.756 5.304 2.756 7.459 0 4.45 1.328 7.228 6.544 13.688 2.097 2.599 4.17 6.392 4.605 8.431 0.558 2.614 2.838 5.347 7.739 9.278 7.448 5.974 12.275 12.21 13.473 17.407 0.45 1.952 2.154 3.956 4.316 5.074 3.293 1.703 4.453 1.656 14.862-0.599 6.209-1.345 12.787-3.22 14.617-4.167l3.327-1.72 0.79 4.675c0.718 4.248-0.055 6.294-8.463 22.42-9.04 17.339-9.463 17.912-18.452 25.009-5.06 3.994-10.355 8.885-11.766 10.867-1.412 1.983-5.929 7.338-10.038 11.9-11.99 13.313-13.62 25.022-5.668 40.716 2.02 3.986 2.809 7.004 2.331 8.912-0.399 1.586-0.143 5.593 0.567 8.904 1.118 5.214 0.991 6.608-0.944 10.4-2.792 5.471-5.014 7.438-12.82 11.35-3.411 1.709-6.201 3.612-6.201 4.229s-2.392 3.815-5.315 7.106-5.315 6.519-5.315 7.173 1.096 3.336 2.435 5.962c4.015 7.87 1.317 13.573-8.307 17.559-4.057 1.681-5.389 5.112-4.385 11.296 0.525 3.241 0.191 4.319-1.645 5.302-1.268 0.678-3.56 3.204-5.093 5.612-4.841 7.603-18.758 21.057-25.081 24.246-5.276 2.661-6.625 2.896-10.501 1.826-3.418-0.944-6.176-0.795-11.906 0.645-9.28 2.331-8.296 2.428-11.89-1.167zm155.56-376.7c3.049-1.577 3.484-2.445 3.484-6.942 0-3.224-0.689-5.712-1.849-6.675-1.017-0.844-2.665-3.112-3.663-5.041-1.649-3.19-1.642-3.44 0.078-2.78 2.272 0.871 5.434-0.177 5.434-1.802 0-0.642-1.098-2.711-2.441-4.597-2.023-2.841-2.834-3.219-4.725-2.207-1.529 0.818-2.282 0.825-2.282 0.022 0-0.659-2.108-2.274-4.685-3.588-5.702-2.909-7.731-6.132-5.952-9.455 1.346-2.515 6.154-4.277 8.207-3.008 2.769 1.711 3.585-0.811 1.301-4.019-5.54-7.78-13.253-7.268-22.818 1.515-6.173 5.667-6.709 7.173-3.218 9.041 1.299 0.696 2.362 2.055 2.362 3.021s2.101 4.035 4.669 6.821c5.913 6.416 6.998 9.347 6.266 16.94l-0.589 6.113 8.114 4.163c4.463 2.29 8.274 4.19 8.468 4.222 0.195 0.032 1.922-0.753 3.839-1.744zm-32.538 329.91c-3.335-1.892-3.809-2.89-4.68-9.861-0.696-5.571-0.405-6.782 2.927-12.198 3.387-5.505 3.631-6.565 2.884-12.544-1.079-8.633 0.757-13.17 5.775-14.271 4.727-1.037 14.956-10.067 17.407-15.368l1.873-4.05 1.302 2.857c3.275 7.189 2.942 10.347-2.757 26.114-3.049 8.436-6.32 18.528-7.269 22.425-3.037 12.474-4.762 15.481-9.737 16.972-5.296 1.587-4.784 1.592-7.725-0.076zm581.79-20.534c-3.77-4.123-6.02-7.661-6.02-9.449 0-3.963 0.63-3.617 4.04 2.199 1.63 2.781 4.58 6.601 6.55 8.488 1.97 1.888 3.58 3.865 3.58 4.393 0 2.272-2.51 0.534-8.15-5.631zm-526.87-1.677c0-0.649 0.531-1.181 1.181-1.181 0.649 0 1.181 0.532 1.181 1.181 0 0.65-0.532 1.181-1.181 1.181-0.65 0-1.181-0.531-1.181-1.181zm621.96-2.154c-0.42-0.674-0.18-1.581 0.52-2.016 1.75-1.085 2.38-0.222 1.2 1.673-0.62 1.016-1.23 1.137-1.72 0.343zm-613.7-1.91c0-0.286 0.532-0.849 1.181-1.25 0.65-0.402 1.181-0.168 1.181 0.52s-0.531 1.251-1.181 1.251c-0.649 0-1.181-0.234-1.181-0.521zm582.98-11.987c-1.15-2.997 0.31-4.048 3.57-2.565 2.81 1.28 2.87 1.476 0.91 2.908-2.74 2.003-3.6 1.937-4.48-0.343zm7.49-5.252c-2.31-1.426-0.71-2.566 2.96-2.112 2.88 0.356 2.94 0.486 0.89 1.752-1.31 0.81-2.89 0.957-3.85 0.36zm-55.15-4.334c-2.42-5.223-1.57-7.229 0.94-2.202 2.61 5.231 2.65 5.403 1.43 5.39-0.49-5e-3 -1.55-1.44-2.37-3.188zm4.53-0.838c-0.06-1.245 0.22-1.943 0.62-1.55 0.39 0.392 0.43 1.411 0.09 2.263-0.38 0.942-0.66 0.663-0.71-0.713zm96.15-11.34c-1.08-1.749-0.06-2.642 2.46-2.15 1.85 0.36 1.87 0.551 0.2 1.933-1.33 1.101-2.08 1.162-2.66 0.217zm-698-5.884c-0.402-0.65-0.167-1.181 0.521-1.181s1.25 0.531 1.25 1.181c0 0.649-0.234 1.181-0.52 1.181-0.287 0-0.85-0.532-1.251-1.181zm518.49-11.097c-7.48-2.356-10.87-4.546-13.81-8.918-3.36-4.994-9.51-8.775-12.65-7.778-1.27 0.403-3.41 2.594-4.75 4.869-2.28 3.873-2.72 4.086-6.87 3.348-2.44-0.434-5.85-2.105-7.58-3.713-2.19-2.044-3.87-2.69-5.58-2.147-1.35 0.427-3.3 0.302-4.34-0.279-1.63-0.909-1.47-1.335 1.13-3.036 3.01-1.971 3.01-1.997 1-6.229-1.63-3.399-3.86-5.171-11.17-8.847-5.03-2.529-10.72-4.597-12.64-4.597-4.39 0-6.2-4.049-2.89-6.468 1.96-1.439 1.68-1.797-3.46-4.291-5.45-2.649-5.53-2.761-2.92-4.207 1.47-0.817 3.84-1.504 5.26-1.527 2.77-0.045 6.27 3.947 6.27 7.148 0 1.067 1.15 3.4 2.55 5.184 2.52 3.198 2.58 3.211 4.43 0.902 1.03-1.288 4.33-3.746 7.32-5.463l5.45-3.12 7.54 3.405c4.15 1.873 10.05 4.304 13.1 5.404 3.05 1.099 9.15 4.368 13.56 7.263 8.42 5.528 12.07 10.189 9.98 12.716-1.71 2.06 5 11.443 11.95 16.708 7.64 5.786 7.51 6.321-0.88 3.673zm51.4-0.095c-0.93-1.122-1.02-1.8-0.24-1.8 1.43 0 3.09 2.241 2.27 3.06-0.3 0.297-1.21-0.27-2.03-1.26zm-198.45-4.808c-1.71-0.946-2.2-1.643-1.18-1.656 2.11-0.029 5.49 1.937 4.69 2.732-0.31 0.306-1.88-0.177-3.51-1.076zm19.97-1.56c3.35-4.704 8.59-6.717 13.44-5.161 3.53 1.134 3.58 1.229 0.78 1.341-1.66 0.066-5.53 1.715-8.6 3.664-7.02 4.447-8.71 4.494-5.62 0.156zm171.37 1.615c-1.6-1.923-1.22-2.163 1.67-1.054 1.03 0.394 1.87 1.191 1.87 1.771 0 1.634-1.91 1.247-3.54-0.717zm5.53-1.042c-0.44-1.157-0.77-2.99-0.73-4.074 0.05-1.305 0.46-1.007 1.21 0.881 0.63 1.569 0.96 3.402 0.73 4.074-0.22 0.673-0.77 0.276-1.21-0.881zm91.32 1.112c0-0.286 0.53-0.849 1.18-1.251 0.65-0.401 1.18-0.167 1.18 0.521s-0.53 1.251-1.18 1.251-1.18-0.235-1.18-0.521zm-302.07-4.961c-0.82-0.344-1.18-1.111-0.82-1.705 0.9-1.46 8.47-1.379 9.39 0.1 0.4 0.65 0.03 1.189-0.82 1.198s-2.61 0.245-3.91 0.524c-1.29 0.28-3.03 0.228-3.84-0.117zm17.53-0.886c-2.14-2.586 0.33-3.373 5.89-1.875 5.61 1.509 5.59 1.745-0.22 2.794-3.02 0.545-4.68 0.276-5.67-0.919zm177.33-0.719c-0.82-1.308-0.96-2.362-0.32-2.362 0.63 0 1.71 1.063 2.41 2.362 0.7 1.3 0.84 2.363 0.33 2.363-0.52 0-1.61-1.063-2.42-2.363zm7.4-1.188c-3.16-3.489-1.47-4.038 1.78-0.579 1.52 1.622 2.23 2.948 1.57 2.948-0.67 0-2.17-1.066-3.35-2.369zm-221.45-0.205c-4.22-0.585-10.17-1.884-13.23-2.886-3.05-1.002-6.65-1.473-7.99-1.046-2.71 0.858-14.21-2.523-14.21-4.177 0-3.775 10.59-4.062 16.22-0.439 2.1 1.353 3.75 1.443 8.19 0.448 4.92-1.103 5.95-0.967 8.84 1.17 1.8 1.33 3.8 2.418 4.46 2.418 2.33 0 9.42 3.951 8.82 4.919-0.33 0.542-1.24 0.912-2.01 0.822-0.78-0.091-4.86-0.643-9.09-1.229zm212.01-5.693c-1.18-1.299-1.61-2.362-0.96-2.362s2.14 1.063 3.32 2.362c1.17 1.299 1.6 2.362 0.95 2.362-0.64 0-2.14-1.063-3.31-2.362zm-7.45-1.496c-0.67-0.808-1.56-3.061-1.98-5.007-0.68-3.133-0.6-3.267 0.66-1.174 0.78 1.299 2.18 3.24 3.1 4.312 0.98 1.136 1.22 2.239 0.56 2.644-0.62 0.382-1.67 0.033-2.34-0.775zm-25.01-3.755-2.94-1.625 4.55-0.853c2.5-0.469 6.35-2.432 8.54-4.361 2.4-2.107 3.99-2.87 3.98-1.91-0.03 2.402-1.48 4.252-5.89 7.509-4.61 3.403-4.4 3.37-8.24 1.24zm-221.56-4.599c-4.34-2.472-12.16-12.036-14.71-17.981-1.37-3.206-4.52-8.487-7-11.735-2.47-3.248-5.32-7.5-6.31-9.448-1-1.949-4.03-5.67-6.74-8.268-5.7-5.478-9.21-11.235-6.82-11.194 3.1 0.053 11.08 4.489 14.5 8.061 9.44 9.854 11.37 11.608 15.83 14.353 4.3 2.65 6.34 5.407 6.54 8.858 0.04 0.65 1.26 2.51 2.72 4.134s4.2 4.678 6.11 6.787c1.9 2.109 3.8 5.4 4.22 7.313 1.37 6.261-3.67 11.779-8.34 9.12zm-237.9-0.78c0-0.649 0.531-1.181 1.181-1.181s1.181 0.532 1.181 1.181c0 0.65-0.531 1.181-1.181 1.181s-1.181-0.531-1.181-1.181zm312.39-0.01c-0.41-0.656-0.41-2.226-0.02-3.49 0.41-1.265-0.08-3.542-1.08-5.068-1.65-2.51-1.63-3.036 0.17-5.6 1.09-1.556 2.37-5.735 2.85-9.287 0.6-4.382 1.77-7.349 3.66-9.234 2.57-2.578 3.22-2.692 9.02-1.593 4.97 0.943 6.93 0.827 9.64-0.574 4.53-2.345 4.86-2.24 3.36 1.065-1.92 4.202-5.74 5.545-9.78 3.432-7.2-3.774-16.75 1.834-11.71 6.876 1.85 1.853 2.88 2.022 6.31 1.037 5.88-1.687 8.2-1.377 4.55 0.608-4.14 2.247-4.92 4.741-2.79 8.863 0.97 1.875 1.76 4.783 1.76 6.462 0 2.688-0.28 2.902-2.36 1.788-1.3-0.696-3.18-3.209-4.17-5.584-1.79-4.286-1.82-4.301-4.11-2.009-2.01 2.01-2.15 2.903-1.05 6.887 1 3.6 0.93 4.79-0.31 5.577-2.09 1.322-3.06 1.284-3.95-0.156h0.01zm162.04-6.3c-1.11-1.699-3.66-3.937-5.67-4.972-2-1.036-3.37-2.149-3.05-2.474 1.84-1.837 12.09 6.505 11.21 9.125-0.26 0.805-1.33 0.084-2.49-1.679zm-185.47-3.931c-1.78-0.933-4.18-1.398-5.34-1.032-2.93 0.932-14.61-1.443-15.76-3.209-0.92-1.405-3.63-10.058-5.07-16.226-0.4-1.695 0-3.896 0.92-5.169 1.36-1.847 2.06-1.987 4.2-0.841 2.26 1.209 2.74 1.002 3.97-1.717 0.78-1.7 3.36-4.084 5.74-5.297 2.51-1.284 4.93-3.689 5.79-5.759 0.99-2.387 2.79-3.991 5.5-4.883 2.21-0.73 5.41-3.145 7.1-5.366 1.7-2.221 3.71-4.038 4.48-4.038s3.1 1.755 5.18 3.899l3.78 3.899-3.03 4.074c-3.44 4.627-3.26 8.607 0.64 14.083l2.36 3.315-2.94 1.928c-1.62 1.06-2.94 2.579-2.94 3.376 0.01 2.705-7.56 18.298-9.45 19.482-1.33 0.825-2.86 0.67-5.13-0.519zm68.61-0.021c-2.44-0.639-2.78-2.729-0.44-2.729 0.89 0 3.39 0.353 5.55 0.786 3.33 0.665 3.58 0.924 1.63 1.688-2.57 1.004-3.71 1.047-6.74 0.255zm188.08-15.061c0-0.286 0.54-0.849 1.19-1.251 0.65-0.401 1.18-0.167 1.18 0.521s-0.53 1.251-1.18 1.251-1.19-0.235-1.19-0.521zm-192.22-3.203c-0.94-0.944-1-2.039-0.18-3.568 0.65-1.213 0.87-2.715 0.48-3.338-1.06-1.723 1.6-5.905 3.77-5.905 1.73 0 1.73 0.203-0.08 2.197-1.56 1.724-1.73 2.865-0.8 5.304 1.87 4.931-0.17 8.33-3.19 5.31zm-593.19-3.883c0-0.287 0.532-0.85 1.181-1.251 0.65-0.402 1.181-0.167 1.181 0.521s-0.531 1.25-1.181 1.25c-0.649 0-1.181-0.234-1.181-0.52zm819.08-3.023c-0.41-0.649-0.17-1.181 0.52-1.181 0.68 0 1.25 0.532 1.25 1.181 0 0.65-0.24 1.181-0.52 1.181-0.29 0-0.85-0.531-1.25-1.181zm-811.99-11.15c0-0.287 0.531-0.85 1.181-1.251 0.649-0.402 1.181-0.167 1.181 0.521s-0.532 1.25-1.181 1.25c-0.65 0-1.181-0.234-1.181-0.52zm568.11-17.758c-2.26-5.255-2.56-5.491-6.02-4.73-3.46 0.759-3.58 0.666-2.29-1.753 1.08-2.004 2.07-2.401 4.61-1.843 2.45 0.538 4.02-6e-3 6.42-2.23 1.74-1.618 3.18-3.897 3.2-5.065 0.03-2.981 4.42 7.016 5.42 12.361 0.76 4.059 0.66 4.279-1.18 2.75-2.74-2.269-5.38 0.085-3.13 2.794 0.9 1.081 1.01 1.822 0.28 1.822-0.67 0-2.06 0.32-3.09 0.713-1.37 0.526-2.47-0.737-4.22-4.819zm-215.35 2.087c-1.32-2.145-2.07-11.769-1.11-14.323 1.01-2.709 1.08-2.676 4.09 1.771 3.61 5.33 4.76 8.748 3.57 10.573-1.14 1.747-5.82 3.162-6.55 1.979zm263.76-6.109c0-0.65 0.53-1.51 1.18-1.911 0.65-0.402 1.18-0.199 1.18 0.451 0 0.649-0.53 1.509-1.18 1.911-0.65 0.401-1.18 0.198-1.18-0.451zm185.43-0.14c0-0.649 0.23-1.181 0.52-1.181 0.28 0 0.85 0.532 1.25 1.181 0.4 0.65 0.16 1.181-0.52 1.181-0.69 0-1.25-0.531-1.25-1.181zm-268.11-6.823c0-0.505 2.37-3.561 5.26-6.791 4.25-4.734 5.28-5.403 5.32-3.447 0.03 1.335-1.75 4.391-3.95 6.791-3.72 4.071-6.63 5.58-6.63 3.447zm25.58-3.152c-0.43-1.121-0.34-2.824 0.2-3.783 0.83-1.487 1.18-1.502 2.34-0.097 1.05 1.258 1 2.153-0.19 3.783-1.47 2.002-1.61 2.008-2.35 0.097zm-904.45-4.602c0.723-0.871 0.966-1.934 0.538-2.362-0.427-0.427 0.325-0.777 1.672-0.777 1.866 0 2.301 0.561 1.83 2.362-0.358 1.372-1.611 2.362-2.987 2.362-1.847 0-2.079-0.348-1.053-1.585zm912.38-0.312c-0.44-1.23-1.02-2.635-1.28-3.122s0.02-0.886 0.64-0.886c1.17 0 2.83 4.85 1.96 5.728-0.29 0.283-0.88-0.491-1.32-1.72zm-11.97-3.082c-1.66-1.999-0.04-4.844 2.44-4.29 1.55 0.347 1.61 0.838 0.36 3.149-1.2 2.229-1.72 2.441-2.8 1.141zm13.96-4.059c-1.35-1.723-2.26-3.33-2.02-3.571 0.96-0.96 4.28 1.155 6.05 3.851 2.71 4.145-0.73 3.905-4.03-0.28zm-19.41-4.572c-1.05-1.052-1.91-2.524-1.91-3.271 0-0.748 1.16-0.193 2.59 1.232 1.42 1.426 2.28 2.898 1.91 3.272-0.37 0.373-1.54-0.181-2.59-1.233zm-927.09-0.169c-0.433-0.433-0.787-1.336-0.787-2.008 0-0.74 0.55-0.67 1.397 0.178 0.769 0.768 1.123 1.672 0.788 2.007-0.336 0.336-0.965 0.256-1.398-0.177zm-6.693-1.575c0-0.649 0.235-1.181 0.521-1.181 0.287 0 0.85 0.532 1.251 1.181 0.402 0.65 0.167 1.182-0.521 1.182s-1.251-0.532-1.251-1.182zm55.511-2.362c0-0.649 0.234-1.181 0.521-1.181 0.286 0 0.849 0.532 1.25 1.181 0.402 0.65 0.168 1.181-0.52 1.181s-1.251-0.531-1.251-1.181zm890.15-0.18c-1.19-0.667-3.43-0.894-4.99-0.502-2.29 0.574-3.86-0.346-8.14-4.751-6.05-6.222-7.23-8.846-5.45-12.161 0.68-1.281 1.24-3.927 1.24-5.88 0-6.411 4.3-6.152 7.44 0.449 1.75 3.657 1.76 4.442 0.12 8.365-1.76 4.223-1.73 4.411 1.42 7.696 2.27 2.373 3.98 3.179 5.77 2.728 1.52-0.381 3.16 0.091 4.05 1.168 2.13 2.563 1.2 4.391-1.46 2.888zm-897.24-7.427c0-0.286 0.532-0.849 1.181-1.251 0.65-0.401 1.182-0.167 1.182 0.521s-0.532 1.251-1.182 1.251c-0.649 0-1.181-0.234-1.181-0.521zm185.43-4.203c0-0.65 0.531-1.181 1.181-1.181 0.649 0 1.181 0.531 1.181 1.181 0 0.649-0.532 1.181-1.181 1.181-0.65 0-1.181-0.532-1.181-1.181zm-188.97-4.585c0-0.65 0.532-1.51 1.181-1.911 0.65-0.402 1.181-0.199 1.181 0.451 0 0.649-0.531 1.509-1.181 1.911-0.649 0.401-1.181 0.198-1.181-0.451zm-10.031-4.85c-0.413-0.67 0.061-0.868 1.112-0.465 2.046 0.786 2.42 1.632 0.721 1.632-0.611 0-1.436-0.525-1.833-1.167zm187.78-0.014c-0.401-0.65-0.167-1.181 0.521-1.181s1.251 0.531 1.251 1.181-0.234 1.181-0.521 1.181c-0.286 0-0.849-0.531-1.251-1.181zm-183.07-2.362c-0.401-0.65-0.167-1.181 0.521-1.181s1.251 0.531 1.251 1.181c0 0.649-0.234 1.181-0.521 1.181-0.286 0-0.849-0.532-1.251-1.181zm5.315 0c0-0.65 0.235-1.181 0.521-1.181s0.849 0.531 1.251 1.181c0.401 0.649 0.167 1.181-0.521 1.181s-1.251-0.532-1.251-1.181zm-81.199-3.145c-0.812-0.327-1.476-1.082-1.476-1.678 0-1.703 5.214-1.264 7.747 0.652 2.178 1.647 2.115 1.731-1.251 1.678-1.949-0.031-4.208-0.324-5.02-0.652zm29.887-0.669c-1.06-0.593-3.4-0.755-5.201-0.359-1.801 0.395-4.571 0.2-6.155-0.433-2.548-1.02-2.323-1.14 1.95-1.04 6.279 0.147 7.955-0.876 6.351-3.874-1.14-2.129-0.797-2.291 4.837-2.291 5.451 0 13.314 2.5 14.646 4.656 0.886 1.434-14.313 4.524-16.428 3.341zm22.655 0.746c-1.4-1.399 0.34-2.837 3.432-2.837 1.857 0 2.798 0.556 2.495 1.476-0.544 1.653-4.684 2.604-5.927 1.361zm854.48-1.878c-3.13-3.127-0.03-6.865 5.69-6.865 2.53 0 2.53 0.021 0.36 3.744-2.54 4.34-4.05 5.121-6.05 3.121zm-844.72-0.243c0-0.255 0.797-0.77 1.772-1.144 0.974-0.374 1.771-0.165 1.771 0.465 0 0.629-0.797 1.144-1.771 1.144-0.975 0-1.772-0.209-1.772-0.465zm-51.055-8.466c-0.365-0.364-2.858-0.693-5.541-0.73-3.701-0.051-4.589-0.415-3.681-1.509 0.878-1.057-0.382-2.465-4.724-5.278-8.514-5.517-13.267-6.595-18.987-4.306-5.363 2.146-5.773 2.206-5.773 0.855 0-2.472 9.399-5.191 16.168-4.676 6.473 0.492 10.097 1.869 22.807 8.669 10.447 5.589 10.458 5.599 7.086 6.561-3.829 1.092-6.526 1.243-7.355 0.414zm8.536-9.967c2.29-1.479 3.544-1.479 3.544 0 0 0.65-1.196 1.173-2.658 1.163-2.149-0.014-2.318-0.237-0.886-1.163zm940.6-2.094c-0.71-0.472-1.94-2.081-2.73-3.576-1.19-2.253-1.06-3.347 0.72-6.401 2.75-4.717 4.61-5.305 5.51-1.743 0.94 3.748-1.78 12.856-3.5 11.72zm-932.85-1.574c0.788-1.276 5.238-1.42 5.236-0.17 0 0.487-1.325 0.962-2.944 1.056-1.62 0.093-2.651-0.306-2.292-0.886zm-23.355-11.383c-1.889-2.168-1.614-5.027 0.483-5.027 0.671 0 0.949 1.038 0.617 2.306-0.331 1.268 5e-3 2.524 0.748 2.791s1.038 0.827 0.655 1.245c-0.383 0.417-1.509-0.174-2.503-1.315zm6.861-9.279c-0.421-1.095-0.499-2.257-0.174-2.582s0.934 0.306 1.355 1.401c0.42 1.096 0.498 2.258 0.173 2.582-0.325 0.325-0.934-0.305-1.354-1.401zm-7.402-1.063c0-0.974 1.012-1.771 2.25-1.771 1.999 0 2.053 0.197 0.478 1.771-0.975 0.975-1.987 1.772-2.25 1.772s-0.478-0.797-0.478-1.772zm990.53-25.893c0-0.924-1.29-3.214-2.87-5.088-3.74-4.449-2.41-7.418 2.02-4.513 3.18 2.088 4.85 6.354 3.67 9.417-0.89 2.323-2.82 2.449-2.82 0.184zm-916.51-7.107c0-0.286 0.531-0.849 1.181-1.251 0.65-0.401 1.181-0.167 1.181 0.521s-0.531 1.251-1.181 1.251-1.181-0.234-1.181-0.521zm923.09-1.452c-0.76-1.995 1.04-3.881 3.75-3.914 1.88-0.023 1.92 2.617 0.06 4.47-1.92 1.925-2.91 1.781-3.81-0.556zm10.79-4.311c-2.29-3.499-5.53-3.98-12.95-1.92-3.01 0.837-5.09 0.846-6.49 0.029-1.14-0.661-1.44-1.218-0.68-1.238 0.76-0.019 2.99-1.383 4.95-3.03 2.52-2.124 4.37-2.789 6.37-2.288 2.11 0.53 4.39-0.485 9.19-4.091 9.34-7.021 10.19-9.235 6.39-16.737-3.65-7.2-2.63-9.518 2.77-6.324 3.94 2.324 7.64 8.982 6.57 11.789-0.39 1.011 0.19 4.181 1.28 7.046 1.55 4.055 1.7 5.759 0.66 7.689-1.51 2.835-5.73 4.729-10.53 4.729-2.69 0-3.5 0.69-4.38 3.756l-1.07 3.755-2.08-3.165zm-478.46-4.031c-1.41-1.41-0.66-2.677 1.584-2.677 1.261 0 2.621-0.531 3.022-1.181 1.098-1.776 2.97-1.42 2.26 0.431-0.728 1.898-5.842 4.451-6.866 3.427zm-40.274-2.044-3.544-1.622 4.725-0.08c5.884-0.099 10.218 1.004 9.365 2.384-0.95 1.538-6.48 1.18-10.546-0.682zm-47.712-11.781c-4.726-2.42-4.949-2.722-2.481-3.368 2.955-0.772 9.496 0.189 9.363 1.377-0.046 0.406-0.445 1.618-0.886 2.693-0.726 1.768-1.301 1.701-5.996-0.702zm-23.673-12.778c-1.022-2.933-0.941-4.055 0.387-5.383 2.401-2.401 4.267-0.714 4.267 3.859 0 5.402-2.963 6.372-4.654 1.524zm-27.695 0.981c0.838-2.183 4.432-2.553 3.709-0.381-0.271 0.812-1.376 1.648-2.457 1.857-1.37 0.266-1.749-0.181-1.252-1.476zm617.12-13.481c-2.16-3.036-2.22-3.596-0.63-5.875 1.57-2.239 1.57-2.91-0.05-6.034-2.66-5.138-2.28-5.449 2.32-1.935 2.28 1.738 6.78 3.94 9.99 4.895 6.65 1.974 8.25 3.523 4.79 4.623-1.31 0.415-2.38 1.526-2.38 2.469 0 1.285-0.82 1.506-3.25 0.884-6.23-1.595-8-1.205-7.6 1.672 0.49 3.525-0.31 3.351-3.19-0.699zm-587.52 1.388c-1.37-1.37-0.853-3.659 0.984-4.364 1.28-0.491 1.772 0.129 1.772 2.235 0 2.835-1.156 3.728-2.756 2.129zm580.02-24.901c-1-1.137-3.41-5.257-5.36-9.156s-7.11-11.058-11.46-15.91c-4.86-5.421-7.33-9.015-6.41-9.323 0.83-0.276 2.6 0.959 3.95 2.744 3.24 4.328 7.25 8.085 13.56 12.738 5.23 3.857 7.82 7.426 4.44 6.131-3.89-1.495-2.92 2.052 2.12 7.726 2.94 3.308 5.34 6.262 5.34 6.566 0 1.436-4.56 0.316-6.18-1.516zm-864.27-2.067c0-0.975 0.514-1.772 1.144-1.772 0.629 0 0.838 0.797 0.464 1.772-0.374 0.974-0.889 1.771-1.144 1.771s-0.464-0.797-0.464-1.771zm-6.172-3.811-4.4-0.462 8.28-8.198c4.554-4.509 8.875-8.198 9.602-8.198 0.768 0 0.538 0.868-0.548 2.068-2.459 2.717-0.782 5.769 3.711 6.756 1.962 0.431 3.917 1.934 4.672 3.592 1.213 2.662 1.008 2.933-3.084 4.069-4.293 1.193-9.418 1.297-18.233 0.373zm-287.79-8.474c-4.091-3.821-4.548-5.432-1.835-6.473 2.43-0.932 6.914 2.107 8.614 5.838 1.784 3.915 1.752 4.062-0.874 4.062-1.23 0-3.888-1.542-5.905-3.427zm520.14-6c1.299-0.641 3.856-1.704 5.681-2.363 4.022-1.451 3.355-2.997-1.732-4.014-3.489-0.698-3.612-0.876-1.616-2.336 1.189-0.869 1.815-2.14 1.392-2.825-0.432-0.7 0.782-1.786 2.772-2.48 1.948-0.679 3.542-1.759 3.542-2.4 0-2.728-2.462-7.317-3.83-7.139-3.153 0.411-4.613-0.145-4.105-1.563 0.291-0.812 0.051-2.406-0.534-3.543-1.52-2.956 1.974-9.069 5.221-9.135 0.487-9e-3 0.753 0.634 0.591 1.43-0.163 0.797 0.952 1.638 2.476 1.869l2.772 0.42-2.648 2.82-2.649 2.819 2.986 1.135c3.205 1.219 6.293 5.188 9.439 12.131 1.507 3.326 2.498 4.195 4.257 3.735 3.609-0.944 4.037 1.502 0.651 3.721-2.294 1.503-2.729 2.35-1.725 3.355 1.005 1.005-0.976 1.679-7.846 2.67-5.054 0.73-11.05 1.671-13.324 2.092-3.162 0.586-3.578 0.492-1.771-0.399zm-19.918-6.525c-0.404-1.052 0.057-3.445 1.025-5.315 1.11-2.147 1.325-3.67 0.582-4.129-2.047-1.265-1.279-2.879 1.727-3.634 1.598-0.401 3.523-1.474 4.279-2.384 1.573-1.896 8.849-2.245 9.941-0.477 0.401 0.648-0.099 2.361-1.111 3.806s-1.84 4.04-1.84 5.767c0 2.634-0.81 3.422-5.019 4.883-2.761 0.958-5.882 2.115-6.934 2.57-1.235 0.534-2.176 0.148-2.65-1.087zm21.689-11.734c0-0.286 0.532-0.849 1.182-1.25 0.649-0.402 1.181-0.168 1.181 0.52s-0.532 1.251-1.181 1.251c-0.65 0-1.182-0.234-1.182-0.521zm-524.16-5.69c-1.157-1.394-1.084-2.044 0.368-3.249 2.4-1.992 3.591-0.641 2.194 2.49-0.963 2.159-1.314 2.263-2.562 0.759zm-1.847-8.883c-0.399-0.645 0.066-1.83 1.033-2.633 1.92-1.593 2.321-0.344 0.707 2.204-0.617 0.973-1.3 1.142-1.74 0.429zm-76.34-0.753c0-0.831 3.5812-2.284 8.6617-3.515 1.9259-0.466 3.0646-0.354 2.682 0.265-0.3657 0.592-2.1376 1.373-3.9375 1.736-1.7998 0.364-4.2026 1.021-5.3394 1.46-1.1367 0.44-2.0668 0.464-2.0668 0.054zm701.85-13.281c-2.179-0.879-1.794-2.2342 0.689-2.4212 1.191-0.0897 2.165 0.5942 2.165 1.5202 0 1.759-0.409 1.888-2.854 0.901zm-259.54-6.0363c-7.474-4.0758-11.046-10.338-8.881-15.566 1.025-2.4744 1.056-4.0304 0.117-5.7863-1.956-3.6544 0.596-7.937 7.121-11.952 3.1-1.9071 6.194-4.5114 6.877-5.7873 1.892-3.5351 0.207-9.5929-3.085-11.093-1.667-0.7592-2.573-1.9598-2.205-2.9192 0.838-2.1849-3.094-9.6473-7.01-13.304-2.883-2.691-4.123-2.959-13.993-3.0236-13.44-0.088-15.944-0.8352-15.722-4.6917 0.093-1.6019 0.448-2.913 0.79-2.9135 0.341-4e-4 5.125-0.5548 10.629-1.2319 7.028-0.8645 13.33-2.6474 21.164-5.9881 12.129-5.1723 13.053-5.2734 41.993-4.5931 9.138 0.2148 17.545-0.46152 28.345-2.2803 10.058-1.6938 17.459-2.3323 21.455-1.851 3.395 0.4089 8.311 0.1392 11.087-0.60819 6.441-1.7344 23.176 0.35192 29.758 3.7099 3.891 1.9852 5.95 2.2473 12.516 1.5936 7.093-0.70611 7.629-0.61322 5.497 0.95249-1.299 0.95418-5.285 2.1198-8.858 2.5902-7.753 1.0208-14.876 6.5464-12.988 10.074 0.814 1.5219 0.23 2.8209-2.403 5.3437-1.913 1.8332-3.759 4.2154-4.101 5.2939-0.823 2.5908-11.264 7.4127-16.441 7.5925-5.75 0.1997-6.352 1.4221-1.905 3.8714 2.101 1.1571 5.167 3.1286 6.815 4.3812l2.995 2.2774-2.708 1.0016c-2.076 0.7678-3.759 0.2728-7.213-2.1207-4.687-3.2481-9.73-3.2644-7.04-0.0228 1.049 1.2642 0.797 1.7552-1.167 2.2687-4.389 1.1478-1.284 3.4174 3.556 2.5996 3.081-0.5205 4.814-0.2462 5.777 0.9146 1.146 1.3812-0.349 2.0207-8.951 3.8287-5.68 1.1939-13.25 2.2143-16.823 2.2677-6.637 0.0992-11.42 2.0046-18.456 7.3522-2.294 1.7438-7.17 3.472-12.875 4.5636-11.925 2.2816-15.955 4.9203-23.14 15.152-5.771 8.2178-9.251 11.281-12.85 11.31-0.974 8e-3 -4.429-1.4349-7.677-3.2061zm-83.743-7.8992c-2.537-1.5584-5.645-4.465-6.907-6.459-2.465-3.8929-4.738-4.3875-11.392-2.4791-2.252 0.646-4.78 0.7083-5.791 0.1426-3.497-1.9572 2.82-3.8822 9.856-3.0031 5.351 0.6685 6.539 0.478 7.163-1.148 1.254-3.2671 6.992-5.6085 10.182-4.1548 1.964 0.8949 3.75 0.8699 6.258-0.0875 3.375-1.2881 3.422-1.4044 1.217-3.023-1.261-0.9259-2.7-1.6834-3.198-1.6834s-2.296-2.3726-3.995-5.2725c-1.7-2.8999-4.885-6.3817-7.078-7.7374-3.728-2.3039-4.221-2.3444-7.556-0.6201-2.915 1.5074-4.599 1.6129-9.211 0.5773-3.104-0.6971-7.439-0.9318-9.632-0.5217-3.805 0.7114-10.776-1.1505-10.776-2.8781 0-3.1738 10.003-10.297 15.945-11.354l4.724-0.8407-3.377 3.5979c-4.658 4.9631-2.907 7.2472 2.152 2.8058 2.146-1.8841 5.854-3.7919 8.241-4.2397 3.647-0.6842 5.21-0.238 9.789 2.7953 6.094 4.036 6.563 4.1442 9.999 2.3052 2.07-1.1074 2.837-0.8033 5.084 2.0148 1.554 1.9493 5.025 4.0718 8.41 5.1428 5.395 1.7069 5.764 2.0782 5.764 5.7988 0 2.7901 0.804 4.5506 2.699 5.9054 7.926 5.6685 7.753 5.4343 6.038 8.1806-2.352 3.7654-4.208 4.0383-9.413 1.3831-3.621-1.8471-5.202-2.1004-7.025-1.1249-2.23 1.1936-2.254 1.4486-0.459 4.9205 1.474 2.8494 1.608 4.2882 0.607 6.4858-1.234 2.708-1.43 2.7498-4.781 1.0174-6.586-3.4059-11.021-1.1647-4.877 2.4646 1.925 1.1371 3.232 2.5014 2.904 3.0318-1.144 1.8509-6.988 0.8691-11.564-1.9429zm242.6 1.5293c0-0.5413 0.798-0.9842 1.772-0.9842s1.772 0.4429 1.772 0.9842c0 0.5414-0.798 0.9843-1.772 0.9843s-1.772-0.4429-1.772-0.9843zm-287.13-6.3517c-2.329-1.2242-4.137-1.329-7.398-0.4286-5.544 1.5307-7.482 0.4105-4.669-2.6981 3.601-3.9795 6.044-4.7622 10.388-3.3286 4.889 1.6135 7.059 4.0118 5.74 6.3441-0.841 1.4869-1.415 1.5026-4.061 0.1112zm234.57-0.5379c-1.949-1.2813-4.43-2.0494-5.512-1.7068-1.492 0.4718-1.823 0.0623-1.365-1.6884 0.703-2.6871 11.08-6.5653 14.588-5.452 1.223 0.3882 4.349 0.069 6.946-0.7092 4.078-1.2218 5.159-1.1293 7.916 0.677l3.193 2.0919-2.844 2.2164c-2.401 1.8707-6.853 3.4938-17.607 6.419-0.975 0.265-3.367-0.5665-5.315-1.8479zm-320.66-22.048c-1.624-0.2567-5.58-1.6458-8.791-3.0871l-5.839-2.6204 8.201-0.5906c4.51-0.3248 8.2-1.122 8.2-1.7716s-3.189-1.4659-7.086-1.8141c-5.146-0.4597-6.116-0.7831-3.543-1.181 4.308-0.6664 4.618-2.5322 0.59-3.5494-2.9-0.7326-2.879-0.7773 1.201-2.5353 7.071-3.0466 14.603-3.6302 21.276-1.6486 5.478 1.627 6.334 1.6201 8.917-0.0724 1.827-1.1969 2.911-1.3972 3.005-0.5552 0.081 0.7243 0.214 1.937 0.295 2.6948 0.274 2.5587 2.63 2.2276 5.441-0.7647 2.603-2.7701 7.114-4.0971 7.104-2.0895-3e-3 0.4872-1.053 2.6058-2.335 4.708l-2.331 3.8222 3.812 1.9884 3.811 1.9884-6.258 2.8562c-5.647 2.5774-6.805 2.7249-11.867 1.5106-4.908-1.1773-6.316-1.0427-11.261 1.077-5.585 2.3942-6.763 2.5477-12.542 1.6343zm47.368-0.8321c-1.067-1.2854-0.626-1.9179 2.131-3.0599 1.919-0.7948 4.671-1.0598 6.146-0.5916 2.558 0.8119 2.499 0.9395-1.389 3.0104-4.961 2.642-5.208 2.665-6.888 0.6411zm325.85-5.466c2.29-1.4798 3.544-1.4798 3.544 0 0 0.6496-1.196 1.1729-2.658 1.163-2.149-0.0146-2.318-0.2372-0.886-1.163zm216.73-3.2767c-6.038-2.3851-5.914-2.2547-4.157-4.3717 0.821-0.9901 1.03-1.8171 0.463-1.8377-0.567-0.0207 0.033-0.8408 1.332-1.8225 1.299-0.9816 2.371-2.1606 2.382-2.6198 0.041-1.7469 4.85-6.3537 8.248-7.9018 1.948-0.8879 6.997-1.8886 11.22-2.2238 4.222-0.3352 9.878-0.9494 12.568-1.3648 2.863-0.4421 5.196-0.2613 5.627 0.436 0.837 1.355-0.761 1.9309-9.928 3.5778-9.096 1.6342-14.564 4.1808-18.165 8.4606-3.794 4.5086-3.921 7.3553-0.437 9.7857l2.658 1.8538-3.543-0.0528c-1.949-0.029-5.67-0.8926-8.268-1.9189v-1e-4zm-618.58-3.4244c-1.904-1.9048-1.47-2.3194 7.668-7.3222 10.708-5.8616 16.088-6.6397 25.692-3.7156l5.315 1.6181-7.087 1.4051c-5.795 1.1492-18.077 5.2563-27.776 9.2884-0.989 0.4114-2.697-0.1594-3.812-1.2738zm85.327-1.5287c0-0.6288-1.461-1.9822-3.248-3.0075l-3.248-1.8643 4.349 0.6839c3.09 0.486 4.629 0.1965 5.315-1 0.816-1.4229 8.333-4.2702 11.331-4.2918 0.504-4e-3 0.092 1.5861-0.914 3.5326-2.371 4.5847-13.585 9.4939-13.585 5.9471zm18.389-3.4485c-1.692-2.7379 9.864-6.976 14.774-5.4179 3.577 1.1356 1.186 3.0869-5.055 4.1243-2.792 0.4642-5.953 1.2174-7.024 1.6737s-2.284 0.2853-2.695-0.3801zm37.712-8.6971c-7.795-0.62-14.318-1.2622-14.496-1.4271-1.056-0.9799 1.578-4.1696 4.413-5.3438 2.787-1.1545 4.071-1.0013 7.887 0.9407 3.719 1.8929 6.117 2.2076 13.026 1.7096 4.657-0.3356 9.972-0.2295 11.811 0.2359l3.343 0.8462-4.134 2.2089c-2.274 1.2149-4.931 2.1522-5.905 2.0829-0.975-0.0693-8.15-0.6332-15.945-1.2533zm339.89-4.8269c-5.802-2.9702-6.361-4.3172-1.804-4.3425 1.786-0.01 4.045-0.5916 5.019-1.2925 1.532-1.1017 1.511-1.1918-0.151-0.6648-1.058 0.3353-2.541-9e-3 -3.297-0.7645-1.045-1.0449-1.589-1.0264-2.271 0.0772-0.632 1.0217-1.928 1.1426-4.38 0.4084-6.228-1.8651-7.617-2.6931-7.617-4.5424 0-1.5663 1.562-1.7098 11.221-1.0308 7.356 0.517 11.22 0.3737 11.22-0.4162 0-2.325 3.277-1.177 4.146 1.4524l0.878 2.6575 0.523-2.6575c0.287-1.4615 1.283-2.6574 2.212-2.6574s1.689-0.6377 1.689-1.4173c0-1.1023 0.315-1.1023 1.418 0 0.824 0.8245 4.776 1.4173 9.448 1.4173 8.444 0 10.427 1.5097 4.796 3.6509-2.927 1.1126-8.017 0.7979-13.595-0.8407-1.137-0.334-2.063-0.1728-2.059 0.3582 8e-3 1.09 6.644 5.0992 8.44 5.0992 0.643 0 1.915 0.7456 2.826 1.6568 1.422 1.4219 1.41 1.7517-0.084 2.3251-0.958 0.3675-1.741 0.0942-1.741-0.6072 0-0.8247-1.502-0.9937-4.25-0.4782-2.976 0.5583-4.008 0.4051-3.442-0.5108 0.445-0.7195 0.167-2.0821-0.619-3.028-1.514-1.8249-5.862-2.3836-5.862-0.7534 0 0.5316-1.727 2.8763-3.838 5.2103l-3.839 4.2438-4.987-2.5529zm-313.31-2.5982c-2.047-1.202-4.944-1.5501-9.448-1.1357-4.211 0.3873-7.448 0.0534-9.201-0.9491-2.417-1.3821-1.826-1.5397 5.55-1.4799 9.224 0.0747 13.275-1.8999 8.28-4.0356-2.373-1.0146-2.027-1.1068 2.041-0.5432 5.31 0.7356 7.374-0.6872 4.481-3.0885-3.085-2.5606 0.307-3.3555 11.285-2.6443 6.793 0.4401 11.062 0.1933 12.807-0.7406 3.343-1.789 2.031-4.0664-1.79-3.1074-2.641 0.66278-20.967-0.4248-20.194-1.1984 0.553-0.55284 26.517-2.9575 43.566-4.0348 8.843-0.5588 18.676-1.3383 21.85-1.7322l5.771-0.71625-9.527 4.5764c-8.933 4.2907-23.459 8.4737-29.427 8.4737-1.453 0-5.629 1.5944-9.281 3.5432s-7.372 3.5432-8.267 3.5432c-0.896 0-4.759 1.5877-8.586 3.5283-3.826 1.9405-6.957 3.5161-6.957 3.5013s-1.329-0.8068-2.953-1.7601zm-23.031-10.79c-5.724-1.2665-5.934-1.743-1.727-3.9231 6.131-3.1778 11.933-3.9922 14.571-2.0455 2.088 1.5414 1.967 1.7796-2.134 4.1997-4.275 2.5223-6.01 2.8088-10.71 1.7689z" stroke="var(--svg-bg-1)" stroke-dasharray="2 2" stroke-width="2"/>
</svg>
