<svg xmlns="http://www.w3.org/2000/svg" version="1.1" xmlns:xlink="http://www.w3.org/1999/xlink" xmlns:svgjs="http://svgjs.com/svgjs" width="1440" height="560" preserveAspectRatio="none" viewBox="0 0 1440 560">
    <g mask="url(&quot;#SvgjsMask1009&quot;)" fill="none">
        <path d="M3 560L563 0L878 0L318 560z" fill="url(#SvgjsLinearGradient1010)"></path>
        <path d="M372.8 560L932.8 0L1201.3 0L641.3 560z" fill="url(#SvgjsLinearGradient1010)"></path>
        <path d="M684.6 560L1244.6 0L1334.6 0L774.6 560z" fill="url(#SvgjsLinearGradient1010)"></path>
        <path d="M1433 560L873 0L669 0L1229 560z" fill="url(#SvgjsLinearGradient1011)"></path>
        <path d="M1114.2 560L554.2 0L420.70000000000005 0L980.7 560z" fill="url(#SvgjsLinearGradient1011)"></path>
        <path d="M800.4 560L240.39999999999998 0L-221.60000000000002 0L338.4 560z" fill="url(#SvgjsLinearGradient1011)"></path>
        <path d="M960.4169402865646 560L1440 80.41694028656462L1440 560z" fill="url(#SvgjsLinearGradient1010)"></path>
        <path d="M0 560L479.5830597134354 560L 0 80.41694028656462z" fill="url(#SvgjsLinearGradient1011)"></path>
    </g>
    <defs>
        <mask id="SvgjsMask1009">
            <rect width="1440" height="560" fill="#ffffff"></rect>
        </mask>
        <linearGradient x1="0%" y1="100%" x2="100%" y2="0%" id="SvgjsLinearGradient1010">
            <stop stop-color="rgba(4, 82, 86, 0.08)" offset="0"></stop>
            <stop stop-opacity="0" stop-color="rgba(4, 82, 86, 0.08)" offset="0.66"></stop>
        </linearGradient>
        <linearGradient x1="100%" y1="100%" x2="0%" y2="0%" id="SvgjsLinearGradient1011">
            <stop stop-color="rgba(4, 82, 86, 0.08)" offset="0"></stop>
            <stop stop-opacity="0" stop-color="rgba(4, 82, 86, 0.08)" offset="0.66"></stop>
        </linearGradient>
    </defs>
</svg>