<svg xmlns="http://www.w3.org/2000/svg" version="1.1" xmlns:xlink="http://www.w3.org/1999/xlink" xmlns:svgjs="http://svgjs.com/svgjs" width="1440" height="560" preserveAspectRatio="none" viewBox="0 0 1440 560">
    <g mask="url(&quot;#SvgjsMask1009&quot;)" fill="none">
        <rect width="1440" height="560" x="0" y="0" fill="rgba(13, 34, 24, 1)"></rect>
        <path d="M0,380.11C71.216,371.683,133.424,339.162,198.223,308.441C272.918,273.028,367.083,258.111,408.376,186.499C450.093,114.152,424.585,23.283,410.075,-58.96C395.967,-138.925,388.269,-230.472,325.685,-282.208C264.126,-333.097,171.686,-301.563,94.027,-320.226C21.703,-337.607,-40.663,-400.956,-113.882,-387.846C-188.532,-374.479,-237.173,-305.68,-290.169,-251.433C-346.421,-193.853,-428.51,-142.542,-432.09,-62.125C-435.688,18.697,-342.485,67.481,-307.617,140.484C-273.627,211.65,-293.069,310.746,-230.851,359.212C-168.637,407.675,-78.316,389.377,0,380.11" fill="#0a1b13"></path>
        <path d="M1440 954.13C1527.619 953.9549999999999 1618.146 997.855 1697.452 960.604 1779.382 922.12 1832.026 838.4169999999999 1865.444 754.294 1897.893 672.61 1900.144 582.438 1881.828 496.475 1864.304 414.226 1831.454 329.562 1764.194 279.084 1700.7640000000001 231.481 1612.7069999999999 252.401 1535.066 236.236 1465.302 221.711 1402.174 184.74099999999999 1331.035 188.89999999999998 1247.439 193.78699999999998 1160.806 208.89600000000002 1095.982 261.906 1025.959 319.16700000000003 976.854 402.063 961.38 491.185 945.691 581.548 971.216 673.265 1010.1410000000001 756.31 1048.7930000000001 838.773 1099.155 923.559 1181.887 961.6320000000001 1261.695 998.3589999999999 1352.147 954.3050000000001 1440 954.13" fill="#10291d"></path>
    </g>
    <defs>
        <mask id="SvgjsMask1009">
            <rect width="1440" height="560" fill="#ffffff"></rect>
        </mask>
    </defs>
</svg>