<svg xmlns="http://www.w3.org/2000/svg" xml:space="preserve" viewBox="0 0 85 10"><path d="M18.99 2.976c-1 0-1.709.882-1.709 1.985 0 1.158.881 1.985 1.793 1.985.448 0 1.02-.156 1.517-.846l-.757-.449c-.588.863-1.572.433-1.676-.448h2.468c.208-1.35-.67-2.226-1.636-2.226zm.74 1.5h-1.537c.191-.898 1.383-.948 1.537 0zM2.015 6.84V5.372h.62L3.74 6.84h1.124L3.532 5.08a1.631 1.631 0 0 0-.946-2.95H1.099v4.71zm0-3.813H2.6a.75.75 0 0 1 .744.743.749.749 0 0 1-.744.743h-.587V3.026zm14.99 2.93a.536.536 0 0 1-.296.105c-.137 0-.398-.104-.398-.449v-1.64h.744v-.916h-.744v-.95h-.862v.95H15v.896h.448v1.622c0 .847.64 1.345 1.276 1.345.242 0 .57-.088.828-.24zM9.968 4.84l1.468-1.76h-1.192L9.21 4.391V1.819h-.882v5.02h.88V5.288l1.278 1.553h1.192zm9.624 2.71H5.706L6.81 8.651zM7.002 3.08v.173c-.26-.173-.483-.26-.813-.26-.966 0-1.724.88-1.724 1.984 0 1.088.744 1.986 1.724 1.986.31 0 .552-.104.813-.26v.172h.862V3.079zm-.813 2.95c-.483 0-.828-.468-.828-1.069 0-.602.345-1.07.828-1.07s.813.469.813 1.07c0 .583-.345 1.07-.813 1.07zm7.662-2.95v2.207c0 .413-.296.759-.71.759s-.708-.346-.708-.759V3.078h-.863v2.208c0 .916.62 1.655 1.537 1.655.414 0 .744-.241.744-.241v.138h.862V3.08zm7.967 3.76V4.632c0-.414.296-.759.71-.759s.709.345.709.759V6.84h.862V4.632c0-.916-.62-1.656-1.537-1.656-.414 0-.744.241-.744.241V3.08h-.86v3.76z" style="fill:#bf0000"/><path fill="#ff5a5f" d="M73.023 3.45a.467.467 0 1 1-.934 0c0-.258.201-.466.467-.466a.471.471 0 0 1 .467.467zm-1.925.942v.115s-.223-.288-.697-.288c-.783 0-1.394.597-1.394 1.423 0 .82.604 1.423 1.394 1.423.481 0 .697-.295.697-.295v.122c0 .058.043.1.1.1h.582v-2.7h-.582c-.057 0-.1.05-.1.1zm0 1.732a.714.714 0 0 1-.582.294c-.46 0-.812-.287-.812-.776 0-.488.352-.776.812-.776.251 0 .481.144.582.295zm1.113-1.833h.69v2.702h-.69zm10.304-.072c-.475 0-.697.288-.697.288V2.99h-.69v4.002h.582c.058 0 .1-.05.1-.1V6.77s.223.295.697.295c.784 0 1.394-.603 1.394-1.423 0-.82-.61-1.422-1.386-1.422zM82.4 6.41a.704.704 0 0 1-.582-.295v-.962a.78.78 0 0 1 .582-.295c.46 0 .812.287.812.776s-.352.776-.812.776zm-1.631-1.02V7h-.69V5.469c0-.446-.144-.625-.532-.625a.772.772 0 0 0-.56.266v1.882h-.69V4.29h.546c.058 0 .1.05.1.1v.116a.995.995 0 0 1 .734-.288c.301 0 .553.087.754.26.244.2.338.459.338.912zm-4.147-1.173c-.474 0-.697.288-.697.288V2.99h-.69v4.002h.582c.058 0 .1-.05.1-.1V6.77s.224.295.698.295c.783 0 1.394-.603 1.394-1.423.007-.82-.604-1.422-1.387-1.422zm-.115 2.192a.704.704 0 0 1-.582-.295v-.962a.78.78 0 0 1 .582-.295c.46 0 .812.287.812.776s-.352.776-.812.776zm-1.868-2.192a1.1 1.1 0 0 1 .316.036v.64s-.575-.194-.934.215v1.89h-.69V4.29h.582c.058 0 .1.05.1.1v.116a.946.946 0 0 1 .626-.288zm-7.163 2.53c-.036-.087-.072-.18-.108-.26-.058-.13-.115-.25-.165-.365l-.008-.007a74.863 74.863 0 0 0-1.586-3.248l-.022-.043a13.982 13.982 0 0 1-.172-.338c-.072-.13-.144-.265-.259-.395a1.16 1.16 0 0 0-.913-.446 1.21 1.21 0 0 0-.92.43 2.59 2.59 0 0 0-.258.396 13.39 13.39 0 0 1-.172.338l-.022.043a84.193 84.193 0 0 0-1.588 3.249l-.007.014c-.05.115-.108.238-.165.367a4.819 4.819 0 0 0-.108.258 1.527 1.527 0 0 0 1.617 2.07c.237-.03.481-.108.718-.245.295-.165.575-.402.891-.747.316.345.604.582.891.747a1.897 1.897 0 0 0 .906.26c.2 0 .402-.037.582-.116.503-.201.855-.66.934-1.192a1.36 1.36 0 0 0-.065-.77zm-3.24.373c-.389-.488-.64-.948-.726-1.336a1.16 1.16 0 0 1-.022-.438.696.696 0 0 1 .115-.302.763.763 0 0 1 .632-.316c.266 0 .503.115.633.316a.7.7 0 0 1 .115.302c.021.13.014.28-.022.438-.086.38-.338.84-.726 1.336zm2.866.338c-.05.374-.302.697-.654.84-.172.073-.36.094-.546.073-.18-.022-.36-.08-.546-.187-.258-.144-.517-.367-.819-.697.474-.582.762-1.114.87-1.588.05-.223.057-.424.035-.61a1.165 1.165 0 0 0-.194-.49 1.21 1.21 0 0 0-1.013-.51c-.417 0-.79.194-1.013.51-.1.144-.165.31-.194.49a1.51 1.51 0 0 0 .036.61c.108.474.402 1.013.87 1.595-.295.33-.561.553-.82.697a1.412 1.412 0 0 1-.546.187 1.068 1.068 0 0 1-1.2-.913 1.193 1.193 0 0 1 .065-.56c.022-.072.058-.144.094-.23.05-.115.107-.237.165-.36l.007-.014a78.288 78.288 0 0 1 1.58-3.226l.022-.043c.058-.108.115-.223.173-.33a1.58 1.58 0 0 1 .201-.317.752.752 0 0 1 1.15 0c.079.094.143.202.2.317.058.107.116.222.173.33l.022.043a95.276 95.276 0 0 1 1.573 3.234v.008c.058.115.108.244.166.359.036.086.072.158.093.23.057.186.079.366.05.553z"/><g stroke-width=".131" transform="translate(30.098 .236)"><path fill="#88c532" d="M3.099 1.935c.036 0 .071.012.106.035-.265.125-.55.44-.67 1.067l-.505.156c.14-.478.475-1.258 1.069-1.258zm.246.232c.05.128.084.31.084.558v.035l-.64.198c.123-.475.354-.704.556-.79zm.61.43-.31.096v-.066c0-.205-.028-.37-.074-.5.183.023.305.23.384.47zm1.486.365a.062.062 0 0 0-.056-.052l-.517-.039-.38-.378c-.037-.037-.11-.026-.14-.017l-.19.059c-.115-.33-.317-.632-.672-.632-.01 0-.02 0-.03.002-.101-.134-.226-.192-.334-.192-.828 0-1.223 1.034-1.347 1.56l-.579.18c-.18.056-.185.061-.209.23L.5 7.443l3.659.685L6.14 7.7l-.7-4.737"/><path fill="#538f31" d="m5.385 2.913-.517-.038-.38-.378a.093.093 0 0 0-.052-.024L4.159 8.13l1.982-.428-.7-4.738a.062.062 0 0 0-.056-.052"/><path fill="#fff" d="m3.486 4.01-.245.726s-.214-.114-.476-.114c-.385 0-.405.242-.405.303 0 .332.866.459.866 1.237 0 .612-.388 1.006-.911 1.006-.629 0-.95-.391-.95-.391l.168-.556s.33.284.61.284a.246.246 0 0 0 .255-.248c0-.433-.71-.453-.71-1.165 0-.599.43-1.178 1.298-1.178.335 0 .5.095.5.095"/><path fill="#231f20" d="M8.452 5.367c-.198-.107-.3-.198-.3-.322 0-.158.142-.26.362-.26.257 0 .486.107.486.107l.18-.553s-.165-.13-.654-.13c-.681 0-1.153.39-1.153.938 0 .31.22.548.514.717.237.136.322.232.322.373 0 .147-.118.265-.339.265-.328 0-.638-.17-.638-.17l-.192.554s.286.193.768.193c.7 0 1.203-.345 1.203-.966 0-.334-.254-.571-.559-.746m2.791-1.162c-.345 0-.616.164-.825.412l-.011-.005.3-1.565h-.78L9.17 7.029h.78l.26-1.361c.1-.514.366-.83.615-.83.175 0 .243.118.243.288 0 .107-.011.237-.034.344l-.294 1.56h.78l.305-1.61a2.91 2.91 0 0 0 .056-.509c0-.44-.231-.706-.638-.706m2.016 2.284c-.266 0-.378-.226-.378-.509 0-.446.231-1.175.655-1.175.277 0 .367.238.367.47 0 .48-.232 1.214-.644 1.214zm.384-2.282c-.938 0-1.559.847-1.559 1.79 0 .605.373 1.09 1.073 1.09.921 0 1.542-.824 1.542-1.79 0-.56-.327-1.09-1.056-1.09m2.305 2.295c-.202 0-.322-.113-.322-.113l.13-.728c.09-.486.344-.808.616-.808.237 0 .31.22.31.43 0 .502-.299 1.22-.734 1.22zm.746-2.293c-.527 0-.825.463-.825.463h-.011l.045-.418h-.69c-.033.283-.095.712-.157 1.034l-.543 2.852h.78l.214-1.152h.017s.16.102.458.102c.915 0 1.514-.938 1.514-1.887 0-.525-.232-.994-.802-.994m1.915-1.127a.445.445 0 0 0-.446.452c0 .232.147.39.367.39h.011A.44.44 0 0 0 19 3.472a.37.37 0 0 0-.39-.39m-1.09 3.955h.78l.53-2.763h-.785l-.525 2.763m3.292-2.767h-.542l.028-.13c.045-.265.203-.502.463-.502.139 0 .249.04.249.04l.152-.61S21.027 3 20.74 3c-.277 0-.554.079-.763.26-.266.226-.39.553-.452.88l-.023.13h-.361l-.113.588h.362l-.413 2.18h.78l.412-2.18h.537l.107-.587m1.874-.001s-.487 1.23-.706 1.9h-.011c-.015-.216-.192-1.898-.192-1.898h-.82l.47 2.536c.01.057.005.09-.018.13-.09.175-.242.345-.423.469-.147.107-.31.175-.44.22l.214.661a1.78 1.78 0 0 0 .762-.424c.356-.333.684-.847 1.023-1.547L23.5 4.27h-.813"/></g></svg>