<svg xmlns="http://www.w3.org/2000/svg" xmlns:xlink="http://www.w3.org/1999/xlink"><defs><linearGradient id="logosHeadlessuiIcon0" x1="35.871%" x2="60.314%" y1="7.224%" y2="115.988%"><stop offset="0%" stop-color="#66E3FF" /><stop offset="100%" stop-color="#7064F9" /></linearGradient><linearGradient id="logosHeadlessuiIcon1" x1="39.172%" x2="55.05%" y1="0%" y2="99.181%"><stop offset="0%" stop-color="#66E3FF" /><stop offset="100%" stop-color="#7064F9" /></linearGradient><linearGradient id="logosVitejs0" x1="-.828%" x2="57.636%" y1="7.652%" y2="78.411%"><stop offset="0%" stop-color="#41D1FF" /><stop offset="100%" stop-color="#BD34FE" /></linearGradient><linearGradient id="logosVitejs1" x1="43.376%" x2="50.316%" y1="2.242%" y2="89.03%"><stop offset="0%" stop-color="#FFEA83" /><stop offset="8.333%" stop-color="#FFDD35" /><stop offset="100%" stop-color="#FFA800" /></linearGradient><symbol viewBox="0 0 256 221" id="pl-vue"><path fill="#41B883" d="M204.8 0H256L128 220.8L0 0h97.92L128 51.2L157.44 0h47.36Z" /><path fill="#41B883" d="m0 0l128 220.8L256 0h-51.2L128 132.48L50.56 0H0Z" /><path fill="#35495E" d="M50.56 0L128 133.12L204.8 0h-47.36L128 51.2L97.92 0H50.56Z" /></symbol><symbol viewBox="0 0 24 24" id="pl-nuxt"><path fill="#00DC82" d="M9.078 3.965c-.588 0-1.177.289-1.514.867L.236 17.433c-.672 1.156.17 2.601 1.514 2.601h5.72a1.676 1.676 0 0 1-.35-2.117l5.547-9.513l-2.076-3.572a1.734 1.734 0 0 0-1.513-.867zm7.407 2.922c-.487 0-.973.236-1.252.709L9.17 17.906c-.557.945.138 2.13 1.251 2.13h12.13c1.114 0 1.81-1.185 1.253-2.13l-6.067-10.31a1.437 1.437 0 0 0-1.252-.71z"/></symbol><symbol viewBox="0 0 256 256" id="pl-uno"><g fill="#333"><path fill-opacity=".6" d="M137.176 195.927c0-32.812 26.6-59.412 59.412-59.412S256 163.115 256 195.927s-26.6 59.412-59.412 59.412s-59.412-26.6-59.412-59.412Z" /><path fill-opacity=".3" d="M137.176 59.412C137.176 26.6 163.776 0 196.588 0S256 26.6 256 59.412v53.471a5.941 5.941 0 0 1-5.941 5.941H143.117a5.941 5.941 0 0 1-5.941-5.94V59.411Z" /><path d="M118.824 195.927c0 32.812-26.6 59.412-59.412 59.412S0 228.74 0 195.927v-53.471a5.94 5.94 0 0 1 5.941-5.941h106.942c3.28 0 5.941 2.66 5.941 5.941v53.47Z" /></g></symbol><symbol viewBox="0 0 256 256" id="pl-headless"><path fill="url(#logosHeadlessuiIcon0)" d="m50.699 159.089l156.225-52.153c-3.122-19.523-5.346-32.565-7.924-42.518c-2.777-10.706-4.978-13.57-5.842-14.563a30.468 30.468 0 0 0-10.973-7.969c-1.216-.52-4.625-1.728-15.654-1.064c-11.669.704-26.987 3.088-51.245 6.929c-24.25 3.84-39.56 6.313-50.87 9.241c-10.7 2.777-13.573 4.985-14.566 5.85a30.581 30.581 0 0 0-7.963 10.97c-.52 1.215-1.729 4.624-1.064 15.658c.704 11.665 3.089 26.988 6.93 51.24c1.073 6.8 2.041 12.882 2.946 18.379Z" /><path fill="url(#logosHeadlessuiIcon1)" d="M7.625 147.063c-7.427-46.92-11.149-70.38-3.098-89.214a71.092 71.092 0 0 1 18.6-25.605c15.423-13.466 38.88-17.178 85.796-24.611C155.854.19 179.313-3.521 198.16 4.528a71.085 71.085 0 0 1 25.595 18.595c13.477 15.426 17.19 38.886 24.618 85.814c7.435 46.92 11.149 70.387 3.097 89.214a71.076 71.076 0 0 1-18.591 25.604c-15.423 13.474-38.889 17.187-85.812 24.62c-46.916 7.433-70.382 11.146-89.213 3.096a71.093 71.093 0 0 1-25.595-18.595C18.781 217.45 15.068 193.99 7.633 147.063h-.008Zm82.762 83.325c12.565-.76 28.748-3.296 52.702-7.09c23.962-3.792 40.12-6.384 52.318-9.545c11.805-3.064 17.247-6.049 20.76-9.121a45.696 45.696 0 0 0 11.95-16.459c1.84-4.288 3-10.385 2.264-22.563c-.76-12.562-3.297-28.749-7.09-52.705c-3.794-23.955-6.38-40.126-9.54-52.312c-3.066-11.81-6.059-17.25-9.124-20.763a45.699 45.699 0 0 0-16.455-11.954c-4.29-1.84-10.388-3-22.57-2.265c-12.565.76-28.74 3.297-52.701 7.09c-23.954 3.8-40.121 6.385-52.31 9.545c-11.813 3.065-17.247 6.057-20.76 9.122a45.704 45.704 0 0 0-11.958 16.458c-1.833 4.289-2.993 10.386-2.257 22.564c.76 12.57 3.29 28.748 7.091 52.704c3.794 23.956 6.379 40.127 9.54 52.313c3.065 11.81 6.05 17.25 9.124 20.763a45.707 45.707 0 0 0 16.455 11.954c4.29 1.84 10.38 3 22.57 2.264h-.009Z" /></symbol><symbol viewBox="0 0 256 257" id="pl-vite"><path fill="url(#logosVitejs0)" d="M255.153 37.938L134.897 252.976c-2.483 4.44-8.862 4.466-11.382.048L.875 37.958c-2.746-4.814 1.371-10.646 6.827-9.67l120.385 21.517a6.537 6.537 0 0 0 2.322-.004l117.867-21.483c5.438-.991 9.574 4.796 6.877 9.62Z" /><path fill="url(#logosVitejs1)" d="M185.432.063L96.44 17.501a3.268 3.268 0 0 0-2.634 3.014l-5.474 92.456a3.268 3.268 0 0 0 3.997 3.378l24.777-5.718c2.318-.535 4.413 1.507 3.936 3.838l-7.361 36.047c-.495 2.426 1.782 4.5 4.151 3.78l15.304-4.649c2.372-.72 4.652 1.36 4.15 3.788l-11.698 56.621c-.732 3.542 3.979 5.473 5.943 2.437l1.313-2.028l72.516-144.72c1.215-2.423-.88-5.186-3.54-4.672l-25.505 4.922c-2.396.462-4.435-1.77-3.759-4.114l16.646-57.705c.677-2.35-1.37-4.583-3.769-4.113Z" /></symbol></defs></svg>