<svg xmlns="http://www.w3.org/2000/svg" viewBox="0 0 24 10"><path fill="#ff5a5f" d="M12.621 3.233a.466.466 0 1 1-.934 0c0-.259.201-.467.467-.467a.471.471 0 0 1 .467.467zm-1.925.941v.115s-.223-.288-.697-.288c-.783 0-1.394.597-1.394 1.423 0 .82.604 1.423 1.394 1.423.481 0 .697-.295.697-.295v.122c0 .058.043.1.1.1h.582v-2.7h-.582c-.057 0-.1.05-.1.1zm0 1.732a.714.714 0 0 1-.582.294c-.46 0-.812-.287-.812-.776 0-.488.352-.776.812-.776.251 0 .481.144.582.295zm1.113-1.833h.69v2.702h-.69zm10.304-.072c-.475 0-.697.288-.697.288V2.773h-.69v4.002h.582c.058 0 .1-.05.1-.1v-.123s.223.295.697.295c.784 0 1.394-.603 1.394-1.423 0-.819-.61-1.422-1.386-1.422zm-.115 2.192a.704.704 0 0 1-.582-.295v-.962a.78.78 0 0 1 .582-.295c.46 0 .812.287.812.776 0 .489-.352.776-.812.776zm-1.631-1.02v1.61h-.69V5.251c0-.446-.144-.625-.532-.625a.772.772 0 0 0-.56.266v1.882h-.69V4.073h.546c.058 0 .1.05.1.101v.115a.995.995 0 0 1 .734-.288c.301 0 .553.087.754.26.244.2.338.459.338.912zM16.22 4c-.474 0-.697.288-.697.288V2.773h-.69v4.002h.582c.058 0 .1-.05.1-.1v-.123s.224.295.698.295c.783 0 1.394-.603 1.394-1.423.007-.819-.604-1.422-1.387-1.422zm-.115 2.192a.704.704 0 0 1-.582-.295v-.962a.78.78 0 0 1 .582-.295c.46 0 .812.287.812.776 0 .489-.352.776-.812.776zM14.237 4a1.1 1.1 0 0 1 .316.036v.64s-.575-.194-.934.215v1.89h-.69V4.073h.582c.058 0 .1.05.1.101v.115a.946.946 0 0 1 .626-.288zM7.074 6.53c-.036-.087-.072-.18-.108-.259-.058-.13-.115-.251-.165-.366l-.008-.007A74.863 74.863 0 0 0 5.207 2.65l-.022-.043a13.982 13.982 0 0 1-.172-.338c-.072-.129-.144-.265-.259-.395a1.16 1.16 0 0 0-.913-.446c-.359 0-.682.158-.92.431-.107.13-.186.266-.258.395a13.39 13.39 0 0 1-.172.338l-.022.043A84.193 84.193 0 0 0 .881 5.884l-.007.014c-.05.115-.108.238-.165.367a4.819 4.819 0 0 0-.108.258 1.527 1.527 0 0 0 1.617 2.07c.237-.029.481-.108.718-.245.295-.165.575-.402.891-.747.316.345.604.582.891.747a1.897 1.897 0 0 0 .906.26c.2 0 .402-.037.582-.116.503-.201.855-.66.934-1.192a1.36 1.36 0 0 0-.065-.77zm-3.24.373c-.389-.488-.64-.948-.726-1.336a1.16 1.16 0 0 1-.022-.438.696.696 0 0 1 .115-.302.763.763 0 0 1 .632-.316c.266 0 .503.115.633.316a.7.7 0 0 1 .115.302c.021.13.014.28-.022.438-.086.38-.338.84-.726 1.336zm2.866.338c-.05.374-.302.697-.654.84-.172.073-.36.094-.546.073-.18-.022-.36-.08-.546-.187-.258-.144-.517-.367-.819-.697.474-.582.762-1.114.87-1.588.05-.223.057-.424.035-.61a1.165 1.165 0 0 0-.194-.49c-.222-.323-.596-.51-1.013-.51s-.79.194-1.013.51c-.1.144-.165.31-.194.49a1.51 1.51 0 0 0 .036.61c.108.474.402 1.013.87 1.595-.295.33-.561.553-.82.697a1.412 1.412 0 0 1-.546.187 1.068 1.068 0 0 1-1.2-.913 1.193 1.193 0 0 1 .065-.56c.022-.072.058-.144.094-.23.05-.115.107-.237.165-.36l.007-.014a78.288 78.288 0 0 1 1.58-3.226l.022-.043c.058-.108.115-.223.173-.33a1.58 1.58 0 0 1 .201-.317.752.752 0 0 1 1.15 0c.079.094.143.202.2.317.058.107.116.222.173.33l.022.043a95.276 95.276 0 0 1 1.573 3.234V6.1c.058.115.108.244.166.359.036.086.072.158.093.23.057.186.079.366.05.553z"/></svg>