<svg xmlns="http://www.w3.org/2000/svg" xml:space="preserve" id="a" version="1.1" viewBox="0 0 24 10"><style>.st0{fill:#bf0000}</style><g stroke-width=".039" transform="translate(.255 -6.745) scale(.97871)"><path d="M19.145 14.363H4.957l1.128 1.128zM6.281 9.797v.176c-.266-.176-.493-.266-.83-.266-.987 0-1.762.9-1.762 2.028 0 1.112.76 2.029 1.762 2.029.317 0 .564-.106.83-.266v.176h.881V9.797h-.881zm-.83 3.015c-.494 0-.846-.478-.846-1.092 0-.615.352-1.093.846-1.093s.83.478.83 1.093c0 .595-.352 1.092-.83 1.092zm7.828-3.015v2.256c0 .422-.302.775-.725.775s-.724-.353-.724-.775V9.796h-.881v2.256c0 .935.634 1.691 1.57 1.691.423 0 .76-.247.76-.247v.141h.881v-3.84zm8.141 3.842v-2.256c0-.423.302-.775.725-.775s.724.352.724.775v2.256h.881v-2.256c0-.936-.634-1.692-1.57-1.692-.423 0-.76.247-.76.247v-.141h-.88v3.842z" class="st0"/><path d="M1.186 13.639v-1.5h.634l1.128 1.5h1.148l-1.36-1.797a1.667 1.667 0 0 0-.967-3.015H.25v4.812zm0-3.896h.599c.407 0 .76.336.76.76a.765.765 0 0 1-.76.759h-.6v-1.52zm15.316 2.995a.548.548 0 0 1-.302.106c-.14 0-.407-.106-.407-.458V10.71h.76v-.936h-.76v-.971h-.881v.971h-.458v.916h.458v1.657c0 .865.654 1.374 1.304 1.374.247 0 .583-.09.846-.246zm-7.19-1.143 1.5-1.798H9.594l-1.057 1.34V8.509h-.901v5.13h.9v-1.586l1.305 1.586h1.218z" class="st0"/><path d="M18.53 9.691c-1.022 0-1.746.901-1.746 2.029 0 1.183.9 2.028 1.832 2.028.458 0 1.042-.16 1.55-.865l-.774-.458c-.6.881-1.606.442-1.712-.458h2.522c.212-1.379-.685-2.275-1.672-2.275zm.756 1.532h-1.57c.195-.917 1.413-.968 1.57 0z" class="st0"/></g></svg>