<svg xmlns="http://www.w3.org/2000/svg" viewBox="0 0 24 10"><g stroke-width=".131"><path fill="#88c532" d="M3.099 1.935c.036 0 .071.012.106.035-.265.125-.55.44-.67 1.067l-.505.156c.14-.478.475-1.258 1.069-1.258zm.246.232c.05.128.084.31.084.558v.035l-.64.198c.123-.475.354-.704.556-.79zm.61.43-.31.096v-.066c0-.205-.028-.37-.074-.5.183.023.305.23.384.47zm1.486.365a.062.062 0 0 0-.056-.052l-.517-.039-.38-.378c-.037-.037-.11-.026-.14-.017l-.19.059c-.115-.33-.317-.632-.672-.632-.01 0-.02 0-.03.002-.101-.134-.226-.192-.334-.192-.828 0-1.223 1.034-1.347 1.56l-.579.18c-.18.056-.185.061-.209.23L.5 7.443l3.659.685L6.14 7.7l-.7-4.737"/><path fill="#538f31" d="m5.385 2.913-.517-.038-.38-.378a.093.093 0 0 0-.052-.024L4.159 8.13l1.982-.428-.7-4.738a.062.062 0 0 0-.056-.052"/><path fill="#fff" d="m3.486 4.01-.245.726s-.214-.114-.476-.114c-.385 0-.405.242-.405.303 0 .332.866.459.866 1.237 0 .612-.388 1.006-.911 1.006-.629 0-.95-.391-.95-.391l.168-.556s.33.284.61.284a.246.246 0 0 0 .255-.248c0-.433-.71-.453-.71-1.165 0-.599.43-1.178 1.298-1.178.335 0 .5.095.5.095"/></g><path fill="#231f20" stroke-width=".131" d="M8.452 5.367c-.198-.107-.3-.198-.3-.322 0-.158.142-.26.362-.26.257 0 .486.107.486.107l.18-.553s-.165-.13-.654-.13c-.681 0-1.153.39-1.153.938 0 .31.22.548.514.717.237.136.322.232.322.373 0 .147-.118.265-.339.265-.328 0-.638-.17-.638-.17l-.192.554s.286.193.768.193c.7 0 1.203-.345 1.203-.966 0-.334-.254-.571-.559-.746m2.791-1.162c-.345 0-.616.164-.825.412l-.011-.005.3-1.565h-.78L9.17 7.029h.78l.26-1.361c.1-.514.366-.83.615-.83.175 0 .243.118.243.288 0 .107-.011.237-.034.344l-.294 1.56h.78l.305-1.61a2.91 2.91 0 0 0 .056-.509c0-.44-.231-.706-.638-.706m2.016 2.284c-.266 0-.378-.226-.378-.509 0-.446.231-1.175.655-1.175.277 0 .367.238.367.47 0 .48-.232 1.214-.644 1.214zm.384-2.282c-.938 0-1.559.847-1.559 1.79 0 .605.373 1.09 1.073 1.09.921 0 1.542-.824 1.542-1.79 0-.56-.327-1.09-1.056-1.09m2.305 2.295c-.202 0-.322-.113-.322-.113l.13-.728c.09-.486.344-.808.616-.808.237 0 .31.22.31.43 0 .502-.299 1.22-.734 1.22zm.746-2.293c-.527 0-.825.463-.825.463h-.011l.045-.418h-.69c-.033.283-.095.712-.157 1.034l-.543 2.852h.78l.214-1.152h.017s.16.102.458.102c.915 0 1.514-.938 1.514-1.887 0-.525-.232-.994-.802-.994m1.915-1.127a.445.445 0 0 0-.446.452c0 .232.147.39.367.39h.011A.44.44 0 0 0 19 3.472a.37.37 0 0 0-.39-.39m-1.09 3.955h.78l.53-2.763h-.785l-.525 2.763m3.292-2.767h-.542l.028-.13c.045-.265.203-.502.463-.502.139 0 .249.04.249.04l.152-.61S21.027 3 20.74 3c-.277 0-.554.079-.763.26-.266.226-.39.553-.452.88l-.023.13h-.361l-.113.588h.362l-.413 2.18h.78l.412-2.18h.537l.107-.587m1.874-.001s-.487 1.23-.706 1.9h-.011c-.015-.216-.192-1.898-.192-1.898h-.82l.47 2.536c.01.057.005.09-.018.13-.09.175-.242.345-.423.469-.147.107-.31.175-.44.22l.214.661a1.78 1.78 0 0 0 .762-.424c.356-.333.684-.847 1.023-1.547L23.5 4.27h-.813"/></svg>